<?xml version="1.0" encoding="UTF-8"?>
<svg version="1.1" viewBox="0 0 2048 518"  width="140" height="70" xmlns="http://www.w3.org/2000/svg">
<path transform="translate(396)" d="m0 0h37l14 7 5 4 7 10 3 8v16l-5 12-9 10-9 5-9 2-36 2-25 3-29 6-24 7-20 7-25 11-21 11-19 12-17 12-17 14-10 9-3 3h-2l-1 3-8 7-7 8-10 11-11 14-12 17-15 25-14 28-11 29-8 28-5 25-4 33-2 33-4 9-4 6-9 8-10 4-6 1h-8l-12-3-9-7-7-8-5-11v-36l5-39 5-26 7-27 10-30 11-26 13-26 13-22 13-19 14-19 13-15 7-8 9-10 16-16 8-7 13-11 20-15 21-14 15-9 22-12 26-12 27-10 30-9 28-6 25-4z" fill="#02539F"/>
<path transform="translate(1805,256)" d="m0 0 21 1 16 5 13 8 10 9 9 12 6 12v2l4-4 7-10 9-10 9-8 14-8 12-5 13-3 22-1 16 2 15 6 14 9 10 10 9 14 7 16 5 19 2 10v162l-6 8-8 4h-9l-8-4-4-5-2-5-1-145-3-21-5-15-9-14-9-7-9-4-11-2-16 1-11 3-12 6-12 11-9 14-7 18-3 13-2 19-1 121-2 7-5 6-8 3h-8l-8-4-5-6-1-3-1-145-2-18-5-16-5-10-7-9-9-6-11-4-7-1-16 1-11 3-12 6-12 11-9 14-6 15-4 16-2 19-1 122-3 7-5 5-7 3h-8l-8-4-4-5-2-4v-233l4-6 6-5 5-2h7l8 4 5 6 2 6v19l-1 4 5-5 9-11 11-9 14-8 15-5z" fill="#1B134A"/>
<path transform="translate(410,137)" d="m0 0h21l10 3 9 6 7 8 5 11 1 5v8l-3 11-6 9-7 7-11 5-21 2-22 2-24 5-21 7-18 8-18 10-17 12-10 9-8 7-12 12-13 17-12 19-12 25-7 21-5 22-2 16-1 23-4 13-7 9-7 6-10 4-6 1h-9l-10-3-8-5-8-8-5-11-1-4v-24l3-27 5-24 5-17 7-20 11-24 10-18 10-15 8-11 9-11 18-20 10-9 13-11 18-13 18-11 21-11 25-10 26-8 26-5 16-2z" fill="#02539F"/>
<path transform="translate(945,256)" d="m0 0h14l18 2 21 6 17 8 14 10 5 4v-13l3-8 7-6 5-2h7l8 4 6 7 1 3v232l-6 9-5 3-4 1h-7l-8-4-5-6-2-6-1-11-12 9-16 9-19 7-18 4h-34l-25-6-13-5-15-8-13-10-16-16-11-16-8-16-4-10-4-16-2-18v-21l2-18 5-19 11-23 12-16 10-11 14-11 15-9 14-6 19-5zm-2 37-20 4-12 5-11 6-14 12-10 12-8 14-5 14-2 11-1 21 2 18 5 16 6 12 9 12 12 12 18 11 13 5 15 3 11 1h11l20-3 17-6 14-9 10-9 8-8 3-5v-110l-6-8-11-11-15-10-15-6-13-3-7-1z" fill="#1B134A"/>
<path transform="translate(1508,256)" d="m0 0h13l20 2 22 6 11 5 13 7 12 9 10 9 8 8 11 15 9 17 6 19 3 19v30l-3 19-7 21-9 17-9 12-9 10-12 11-18 11-15 7-17 5-15 3h-35l-23-5-17-6-17-9-13-10-16-16-9-12-9-16-7-19-4-22v-31l3-19 6-18 8-16 10-14 9-10 8-8 15-11 21-11 20-6 12-2zm-5 37-17 3-16 6-10 6-10 8-12 12-9 14-6 14-4 19v25l4 18 6 15 8 12 11 12 10 8 14 8 14 5 17 3h22l17-3 16-6 16-10 11-10 10-13 8-16 5-17 1-8v-22l-3-16-6-16-9-14-12-13-13-10-15-8-13-4-12-2z" fill="#1B134A"/>
<path transform="translate(807,122)" d="m0 0h19l18 3 13 5 9 7 4 6 1 3v7l-5 8-5 4-2 1h-12l-19-6h-23l-13 4-8 4-12 11-7 12-4 11-3 17-1 43 26-1h37l8 2 7 6 3 6v10l-5 8-5 4-3 1h-68v205l-6 9-5 3-4 1h-7l-8-4-5-6-2-6v-202h-33l-6-3-5-5-3-8 1-8 5-8 7-4 12-1h21l1-43 3-21 5-16 8-16 6-9 9-10 11-9 15-8 11-4z" fill="#1B134A"/>
<path transform="translate(400,257)" d="m0 0 10 1 19 5 12 5 13 7 10 7 3 3 2 1-1-2 1-14 5-8 6-4 3-1h7l7 3 5 4 3 5 1 4v227l-3 8-8 7-4 1h-8l-8-4-5-6-1-3v-15l-15 11-14 8-16 6-22 5h-33l-22-5-15-5-15-8-12-9-12-11-9-10-9-14-8-16-5-14-3-16 1-1h37l6 18 8 15 11 13 12 10 17 9 17 5 19 2 19-1 17-4 16-7 16-12 7-7 5-7 1-109-4-7-8-9-13-10-16-8-13-4-13-2-2-1v-35z" fill="#1C144B"/>
<path transform="translate(1247,256)" d="m0 0h13l19 2 19 5 16 7 14 8 14 11 7 8 2 4v10l-5 9-6 4-4 1h-7l-6-3-12-10-13-8-14-6-12-3-7-1h-23l-17 3-16 6-14 9-10 9-9 10-8 14-5 13-3 14v30l4 17 5 13 7 11 9 11 9 8 11 7 12 6 14 4 17 2h12l19-3 16-6 15-9 11-10 6-3h11l6 3 6 7 1 3v11l-6 8-12 11-18 11-16 7-18 5-10 2h-35l-23-5-17-6-15-8-16-12-14-14-11-15-8-15-7-21-3-16-1-11v-16l2-17 4-17 6-15 7-13 12-16 7-8 8-7 15-11 15-8 13-5 16-4z" fill="#1B144A"/>
<path transform="translate(592,124)" d="m0 0h8l8 4 6 8 1 4v360l-3 8-6 6-6 2h-8l-8-4-5-6-1-3v-366l5-8 6-4z" fill="#1B134A"/>
<path transform="translate(1192,4)" d="m0 0h26l12 3 12 6 6 5 3-9 4-4 9-1 6 3 3 3 1 4v132l-2 15-4 11-9 13-10 8-12 6-16 4-11 1h-9l-15-2-16-5-11-7-9-8-5-9 1-6 5-6 2-1 9 1 11 8 8 5 14 4h24l13-4 6-4 6-7 3-8 1-6v-20l-11 7-12 5-11 2h-19l-14-3-14-7-13-12-8-11-7-16-2-11v-20l3-14 8-16 9-11 11-9 10-5 9-3zm12 23-14 3-12 7-8 8-7 14-2 12 1 13 5 12 6 8 8 7 12 6 11 2h10l12-2 12-6 9-8 2-3v-53l-6-8-10-7-12-4-7-1z" fill="#1C144B"/>
<path transform="translate(1598,4)" d="m0 0 9 1 5 5 1 7 13-8 11-4 5-1h26l14 4 10 5 10 8 8 8 8 13 5 15 1 7v20l-3 15-4 9-7 12-13 13-14 8-14 4-7 1h-15l-10-2-13-5-10-7-1 63-4 5-4 2h-8l-5-3-3-3-1-182 3-6zm48 23-10 2-9 4-11 8-3 4v59l5 5 7 6 12 5 11 2h8l14-3 10-5 10-9 6-10 3-11v-20l-4-12-6-9-9-8-12-6-11-2z" fill="#1C144A"/>
<path transform="translate(1759,4)" d="m0 0 8 1 5 3 2 5v4l13-8 11-4 5-1h26l14 4 10 5 9 7 9 9 7 11 5 13 2 11v21l-3 14-5 12-8 11-11 11-14 8-14 4-7 1h-15l-10-2-13-5-10-7-1 63-5 6-2 1h-9l-5-3-3-4v-184l5-5zm48 23-13 3-11 6-8 7-1 2v59l5 5 9 7 13 5 16 1 14-3 10-5 10-9 6-10 3-10 1-14-2-12-6-12-9-10-12-7-13-3z" fill="#1C144A"/>
<path transform="translate(386,328)" d="m0 0h9l12 2 12 5 9 6 11 11 4 8v56l-7 11-10 9-16 8-14 3h-12l-14-3-13-7-10-9-6-7-7-13-3-13v-15l3-13 7-13 9-10 7-6 14-7 7-2z" fill="#01539F"/>
<path transform="translate(1962,4)" d="m0 0h27l15 4 12 6 10 8 8 8 8 14 4 10 2 8v24l-4 15-8 15-11 12-10 8-16 7-16 3h-16l-15-3-12-5-11-7-11-11-8-13-5-14-2-10v-17l4-17 7-14 8-10 10-9 10-6 14-5zm3 24-12 4-10 7-8 9-5 10-2 8v17l4 13 7 10 9 8 10 5 6 2 16 1 11-2 12-6 10-9 6-9 3-7 1-6v-18l-3-10-6-10-8-8-10-6-10-3z" fill="#1C144A"/>
<path transform="translate(1447,4)" d="m0 0 7 1 6 5 2 6v69l2 15 4 9 4 5 6 4 6 2h17l11-4 9-7 5-8 4-13 1-9 1-66 3-5 5-3h8l5 3 3 3 1 3v121l-2 5-5 4-2 1h-8l-6-4-2-4-1-11-11 11-12 6-14 3h-15l-11-3-8-4-10-9-6-9-5-12-2-11v-85l4-6z" fill="#1C144A"/>
<path transform="translate(1315,4)" d="m0 0 8 1 5 3 2 4 1 16 7-10 9-8 8-4 7-2h23l12 4 8 6 8 9 5 13 1 5v14l-5 7-4 2h-7l-7-6-3-10-4-11-7-6-9-3h-9l-10 3-9 7-7 11-4 11-3 14-1 63-5 6-5 2-9-2-5-5-1-8v-44l1-76 6-5z" fill="#1D154B"/>
</svg>
