<svg width="16" height="15" viewBox="0 0 16 15" fill="none" xmlns="http://www.w3.org/2000/svg">
<g clip-path="url(#clip0_16_257)">
<path d="M15.5599 0.290317C15.0399 -0.145167 14.2499 -0.0871024 13.7999 0.416123L7.31989 7.67419L5.78989 5.96128C5.33989 5.45806 4.54989 5.39999 4.02989 5.83548C3.50989 6.27096 3.44989 7.03548 3.89989 7.5387L6.36989 10.3064C6.60989 10.5677 6.94989 10.7226 7.30989 10.7226C7.66989 10.7226 8.01989 10.5677 8.24989 10.3064L15.6899 1.99354C16.1399 1.49032 16.0799 0.725801 15.5599 0.290317Z" fill="#30A736"/>
<path d="M13.44 7.58711C13.1 7.58711 12.82 7.85807 12.82 8.18711C12.82 9.68711 12.22 11.0903 11.12 12.1452C10.03 13.2 8.57 13.7903 7.03 13.7903C3.84 13.7903 1.24 11.2742 1.24 8.18711C1.24 6.68711 1.84 5.28388 2.94 4.22904C4.03 3.1742 5.49 2.59356 7.03 2.59356C7.35 2.59356 7.67 2.62259 7.99 2.67098C8.33 2.72904 8.65 2.50646 8.71 2.17743C8.77 1.8484 8.54 1.53872 8.2 1.48065C7.82 1.42259 7.43 1.38388 7.04 1.38388C5.16 1.38388 3.39 2.09033 2.07 3.37743C0.73 4.66453 0 6.37743 0 8.18711C0 11.9419 3.16 14.9903 7.03 14.9903C8.91 14.9903 10.68 14.2839 12 12.9968C13.33 11.7097 14.06 10.0065 14.06 8.18711C14.06 7.85807 13.78 7.58711 13.44 7.58711Z" fill="#30A736"/>
</g>
<defs>
<clipPath id="clip0_16_257">
<rect width="16" height="15" fill="white"/>
</clipPath>
</defs>
</svg>
