<svg width="58" height="59" viewBox="0 0 58 59" fill="none" xmlns="http://www.w3.org/2000/svg">
<path d="M40.1896 7.98714C41.0451 7.93847 42.0935 7.85734 42.9316 7.98272C46.1332 8.46209 46.3391 13.3207 43.2027 14.0789C41.4482 14.5037 39.1862 14.3237 37.2418 14.6704C24.6253 16.9256 14.5942 27.9763 13.456 40.9947C13.2733 43.0921 13.9127 46.2693 10.9663 46.7796C8.47814 47.2118 7.14994 45.2796 7.20359 42.9535C7.62264 24.6133 22.1139 9.01227 40.1896 7.98862V7.98714Z" fill="#4BAE66"/>
<path d="M19.6026 46.0067C18.6674 45.0981 18.6108 43.7279 18.6616 42.5066C18.9922 34.4619 23.7946 26.6946 30.6038 22.7401C33.8518 20.8536 39.2284 19.1204 42.9737 19.5865C45.7186 19.9273 46.4711 23.9997 43.9264 25.4039C42.7751 26.0397 40.4275 25.8627 38.9949 26.1356C32.3394 27.404 26.6322 33.0961 25.2446 39.828C24.9241 41.3856 25.0865 43.2411 24.7153 44.5834C24.0991 46.8121 21.2513 47.6115 19.6012 46.0082L19.6026 46.0067Z" fill="#4BAE66"/>
<path d="M32.4887 42.7308C33.6182 49.4686 43.1549 51.0439 46.6117 45.374L46.5783 36.1877C45.398 34.1994 43.1694 33.189 40.9799 32.8837C40.9842 31.8689 40.845 30.8791 40.9639 29.8732C43.0447 29.9056 44.9036 30.9322 46.5392 32.1447C46.2651 29.795 49.1796 28.8127 49.7408 31.3084V50.3742C49.1434 52.7195 46.2579 51.8817 46.6146 49.5394L43.8291 51.1663C37.4042 53.7549 30.1513 49.765 29.3668 42.7322H32.4887V42.7308Z" fill="#0F1137"/>
<path d="M38.5468 35.8101C39.6343 35.6345 40.7754 35.7658 41.7643 36.2467C42.5285 36.6184 43.7943 37.6907 43.9292 38.5816C44.051 39.3869 44.0336 41.8177 43.9393 42.6555C43.6667 45.0819 40.2781 46.0982 38.2582 45.5598C33.2789 44.2353 33.7415 36.5815 38.5482 35.8086L38.5468 35.8101Z" fill="#4BAE66"/>
</svg>
