<svg width="34" height="34" viewBox="0 0 34 34" fill="none" xmlns="http://www.w3.org/2000/svg">
<path d="M19.5986 3.0918L20.2697 2.35042L20.2696 2.35034L19.5986 3.0918ZM20.0127 4.63477L19.0176 4.73404L19.0177 4.73427L20.0127 4.63477ZM20.0518 5.02539L21.0468 4.92612L21.0468 4.92589L20.0518 5.02539ZM20.8486 7.70508L20.4655 8.62878L20.4658 8.62889L20.8486 7.70508ZM23.3076 6.375L22.6745 5.60093L22.6745 5.60095L23.3076 6.375ZM23.6133 6.125L24.2464 6.89907L24.2464 6.89905L23.6133 6.125ZM24.9961 5.32812L25.046 4.32937L25.0458 4.32936L24.9961 5.32812ZM26.293 6.25879L27.0001 5.55168L26.293 6.25879ZM27.7402 7.70605L28.4473 6.99895L27.7402 7.70605ZM28.6719 9.00391L29.6706 8.95439L29.6706 8.95413L28.6719 9.00391ZM27.874 10.3867L27.1001 9.75343L27.0995 9.75416L27.874 10.3867ZM27.626 10.6904L28.3999 11.3237L28.4005 11.323L27.626 10.6904ZM26.2949 13.1494L25.371 13.5319L25.371 13.532L26.2949 13.1494ZM28.9746 13.9473L28.875 14.9423L28.8754 14.9423L28.9746 13.9473ZM29.3662 13.9863L29.4658 12.9913L29.4655 12.9913L29.3662 13.9863ZM30.9082 14.4014L31.6498 13.7305L31.6497 13.7304L30.9082 14.4014ZM31.167 15.9766H32.167H31.167ZM30.9082 19.5986L31.6496 20.2697L31.6497 20.2695L30.9082 19.5986ZM29.3662 20.0127L29.4655 21.0078L29.4656 21.0077L29.3662 20.0127ZM28.9746 20.0518L28.8754 19.0567L28.8752 19.0567L28.9746 20.0518ZM26.2949 20.8496L25.3711 20.4668L25.3711 20.4669L26.2949 20.8496ZM27.626 23.3086L28.4015 22.6773L28.4 22.6754L27.626 23.3086ZM27.874 23.6133L27.0985 24.2446L27.1 24.2465L27.874 23.6133ZM28.6719 24.9961L29.6706 25.0459L29.6706 25.0457L28.6719 24.9961ZM24.9961 28.6719L25.0456 29.6706L25.0459 29.6706L24.9961 28.6719ZM23.6133 27.874L24.2466 27.1001L24.2461 27.0997L23.6133 27.874ZM23.3086 27.625L22.6753 28.3989L22.6758 28.3993L23.3086 27.625ZM20.8496 26.2949L20.4669 25.371L20.4665 25.3712L20.8496 26.2949ZM20.0518 28.9746L19.0567 28.8752L19.0567 28.8754L20.0518 28.9746ZM20.0127 29.3662L21.0077 29.4656L21.0078 29.4655L20.0127 29.3662ZM19.5986 30.9082L20.2696 31.6497L20.2697 31.6496L19.5986 30.9082ZM15.9766 31.167V32.167V31.167ZM14.4014 30.9082L13.7304 31.6497L13.7305 31.6498L14.4014 30.9082ZM13.9863 29.3662L12.9913 29.4655L12.9913 29.4658L13.9863 29.3662ZM13.9473 28.9746L14.9423 28.8754L14.9423 28.875L13.9473 28.9746ZM13.1494 26.2949L13.532 25.371L13.5319 25.371L13.1494 26.2949ZM10.6904 27.626L11.323 28.4005L11.3237 28.3999L10.6904 27.626ZM10.3867 27.874L9.75416 27.0995L9.75343 27.1001L10.3867 27.874ZM9.00391 28.6719L8.95413 29.6706L8.95439 29.6706L9.00391 28.6719ZM5.32812 24.9961L4.32936 25.0457L4.32937 25.0459L5.32812 24.9961ZM6.12598 23.6133L6.89996 24.2465L6.90148 24.2446L6.12598 23.6133ZM6.37402 23.3086L5.60004 22.6754L5.59852 22.6773L6.37402 23.3086ZM7.70508 20.8496L8.62894 20.4669L8.62891 20.4668L7.70508 20.8496ZM5.02539 20.0518L5.12483 19.0567L5.12465 19.0567L5.02539 20.0518ZM4.63379 20.0127L4.53435 21.0077L4.53453 21.0078L4.63379 20.0127ZM3.0918 19.5986L2.35026 20.2695L2.35037 20.2697L3.0918 19.5986ZM2.83301 15.9766H1.83301H2.83301ZM3.0918 14.4014L2.35031 13.7304L2.35018 13.7305L3.0918 14.4014ZM4.63379 13.9863L4.53478 12.9912L4.53419 12.9913L4.63379 13.9863ZM5.02637 13.9473L5.12538 14.9424L5.12597 14.9423L5.02637 13.9473ZM7.70508 13.1494L8.62897 13.5321L8.62899 13.532L7.70508 13.1494ZM6.375 10.6914L5.59972 11.323L5.60102 11.3246L6.375 10.6914ZM6.12598 10.3857L6.90126 9.75412L6.89996 9.75253L6.12598 10.3857ZM5.32812 9.00293L4.32937 8.9531L4.32936 8.95334L5.32812 9.00293ZM9.00391 5.32715L8.95439 4.32838L8.95413 4.32839L9.00391 5.32715ZM10.3867 6.125L9.75343 6.89892L9.75538 6.90051L10.3867 6.125ZM10.6914 6.37305L11.3247 5.59913L11.3227 5.59754L10.6914 6.37305ZM13.1494 7.7041L13.5319 8.62807L13.532 8.62802L13.1494 7.7041ZM13.9473 5.02441L14.9423 5.12403L14.9423 5.12392L13.9473 5.02441ZM13.9863 4.63379L12.9913 4.53417L12.9913 4.53429L13.9863 4.63379ZM14.4014 3.0918L13.7305 2.35018L13.7304 2.35031L14.4014 3.0918ZM15.9766 2.83301V1.83301V2.83301ZM17 11.333V10.333V11.333ZM11.333 17H10.333H11.333ZM17 22.667V23.667V22.667ZM22.667 17H23.667H22.667ZM18.0225 2.83301V3.83301C18.4792 3.83301 18.726 3.83501 18.898 3.85721C19.0417 3.87576 18.9942 3.89354 18.9276 3.83325L19.5986 3.0918L20.2696 2.35034C19.9173 2.03149 19.5119 1.91987 19.1541 1.87367C18.8245 1.83112 18.426 1.83301 18.0225 1.83301V2.83301ZM19.5986 3.0918L18.9275 3.83317C18.8609 3.77281 18.8739 3.72381 18.9066 3.86507C18.9458 4.03406 18.9723 4.27951 19.0176 4.73404L20.0127 4.63477L21.0078 4.53549C20.9677 4.13389 20.93 3.73717 20.8549 3.41337C20.7734 3.06183 20.6221 2.66941 20.2697 2.35042L19.5986 3.0918ZM20.0127 4.63477L19.0177 4.73427L19.0567 5.12489L20.0518 5.02539L21.0468 4.92589L21.0077 4.53526L20.0127 4.63477ZM20.0518 5.02539L19.0567 5.12467C19.1348 5.90748 19.2021 6.60941 19.3342 7.13536C19.4666 7.66252 19.7389 8.32741 20.4655 8.62878L20.8486 7.70508L21.2317 6.78137C21.4058 6.85356 21.3611 6.99526 21.274 6.64821C21.1865 6.29993 21.1317 5.77661 21.0468 4.92612L20.0518 5.02539ZM20.8486 7.70508L20.4658 8.62889C21.1925 8.93007 21.8554 8.65294 22.3221 8.37398C22.7876 8.09569 23.3318 7.64717 23.9407 7.14905L23.3076 6.375L22.6745 5.60095C22.0129 6.14206 21.604 6.47312 21.2958 6.65732C20.9888 6.84086 21.0575 6.70916 21.2315 6.78127L20.8486 7.70508ZM23.3076 6.375L23.9407 7.14907L24.2464 6.89907L23.6133 6.125L22.9802 5.35093L22.6745 5.60093L23.3076 6.375ZM23.6133 6.125L24.2464 6.89905C24.5996 6.61012 24.7917 6.45563 24.9387 6.36409C25.0614 6.28766 25.036 6.33134 24.9464 6.32689L24.9961 5.32812L25.0458 4.32936C24.5716 4.30578 24.1875 4.47576 23.8813 4.66649C23.5993 4.84211 23.2923 5.09562 22.9802 5.35095L23.6133 6.125ZM24.9961 5.32812L24.9462 6.32688C24.8567 6.32241 24.8358 6.27646 24.9503 6.3647C25.0874 6.47038 25.2632 6.64324 25.5859 6.9659L26.293 6.25879L27.0001 5.55168C26.7148 5.26641 26.4345 4.98355 26.1713 4.78068C25.8855 4.56038 25.5202 4.35305 25.046 4.32937L24.9961 5.32812ZM26.293 6.25879L25.5859 6.9659L27.0331 8.41316L27.7402 7.70605L28.4473 6.99895L27.0001 5.55168L26.293 6.25879ZM27.7402 7.70605L27.0331 8.41316C27.356 8.73604 27.5292 8.91207 27.6351 9.04943C27.7237 9.16433 27.6776 9.14346 27.6731 9.05369L28.6719 9.00391L29.6706 8.95413C29.647 8.4795 29.4392 8.11384 29.2189 7.82811C29.0158 7.56483 28.7328 7.28437 28.4473 6.99895L27.7402 7.70605ZM28.6719 9.00391L27.6731 9.05342C27.6686 8.96346 27.7126 8.93782 27.6359 9.0607C27.5441 9.20785 27.3894 9.39991 27.1001 9.75343L27.874 10.3867L28.6479 11.02C28.9032 10.708 29.157 10.401 29.3327 10.1193C29.5236 9.81337 29.6942 9.42908 29.6706 8.95439L28.6719 9.00391ZM27.874 10.3867L27.0995 9.75416L26.8515 10.0579L27.626 10.6904L28.4005 11.323L28.6485 11.0193L27.874 10.3867ZM27.626 10.6904L26.8521 10.0571C26.3538 10.6661 25.9051 11.2102 25.6266 11.6756C25.3476 12.1421 25.0701 12.805 25.371 13.5319L26.2949 13.1494L27.2189 12.7669C27.291 12.941 27.1592 13.0096 27.343 12.7024C27.5273 12.3942 27.8586 11.9852 28.3999 11.3237L27.626 10.6904ZM26.2949 13.1494L25.371 13.532C25.6721 14.259 26.337 14.5316 26.8642 14.6641C27.3901 14.7964 28.0921 14.8639 28.875 14.9423L28.9746 13.9473L29.0742 12.9522C28.2236 12.8671 27.7002 12.8121 27.3519 12.7245C27.0049 12.6373 27.1467 12.5927 27.2188 12.7668L26.2949 13.1494ZM28.9746 13.9473L28.8754 14.9423L29.267 14.9814L29.3662 13.9863L29.4655 12.9913L29.0739 12.9522L28.9746 13.9473ZM29.3662 13.9863L29.2666 14.9814C29.7206 15.0268 29.9658 15.0535 30.1344 15.0928C30.2751 15.1256 30.2266 15.1385 30.1667 15.0723L30.9082 14.4014L31.6497 13.7304C31.3313 13.3785 30.9397 13.2268 30.588 13.1449C30.2642 13.0695 29.8677 13.0315 29.4658 12.9913L29.3662 13.9863ZM30.9082 14.4014L30.1666 15.0722C30.1065 15.0058 30.1242 14.9585 30.1427 15.1018C30.1649 15.2736 30.167 15.5201 30.167 15.9766H31.167H32.167C32.167 15.5731 32.1688 15.1749 32.1262 14.8454C32.08 14.4876 31.9683 14.0826 31.6498 13.7305L30.9082 14.4014ZM31.167 15.9766H30.167V18.0225H31.167H32.167V15.9766H31.167ZM31.167 18.0225H30.167C30.167 18.4791 30.165 18.7259 30.1428 18.8979C30.1242 19.0417 30.1064 18.9943 30.1667 18.9277L30.9082 19.5986L31.6497 20.2695C31.9685 19.9172 32.0801 19.5118 32.1263 19.154C32.1689 18.8244 32.167 18.426 32.167 18.0225H31.167ZM30.9082 19.5986L30.1668 18.9276C30.2271 18.861 30.2761 18.8739 30.1352 18.9066C29.9664 18.9457 29.7212 18.9722 29.2668 19.0177L29.3662 20.0127L29.4656 21.0077C29.867 20.9676 30.2635 20.9299 30.5871 20.8548C30.9386 20.7733 31.3308 20.622 31.6496 20.2697L30.9082 19.5986ZM29.3662 20.0127L29.267 19.0176L28.8754 19.0567L28.9746 20.0518L29.0739 21.0468L29.4655 21.0078L29.3662 20.0127ZM28.9746 20.0518L28.8752 19.0567C28.0921 19.135 27.3901 19.2025 26.8641 19.3348C26.3368 19.4675 25.6722 19.7402 25.3711 20.4668L26.2949 20.8496L27.2188 21.2324C27.1467 21.4063 27.0052 21.3617 27.352 21.2744C27.7002 21.1868 28.2235 21.1318 29.074 21.0468L28.9746 20.0518ZM26.2949 20.8496L25.3711 20.4669C25.0699 21.1939 25.3475 21.8569 25.6266 22.3234C25.9051 22.7887 26.3538 23.3329 26.852 23.9418L27.626 23.3086L28.4 22.6754C27.8586 22.0137 27.5273 21.6047 27.3429 21.2965C27.159 20.9893 27.291 21.0581 27.2188 21.2323L26.2949 20.8496ZM27.626 23.3086L26.8505 23.9399L27.0985 24.2446L27.874 23.6133L28.6495 22.9819L28.4015 22.6773L27.626 23.3086ZM27.874 23.6133L27.1 24.2465C27.3894 24.6001 27.5441 24.7922 27.6359 24.9394C27.7126 25.0623 27.6686 25.0366 27.6731 24.9465L28.6719 24.9961L29.6706 25.0457C29.6942 24.5709 29.5236 24.1866 29.3327 23.8807C29.157 23.599 28.9032 23.292 28.648 22.9801L27.874 23.6133ZM28.6719 24.9961L27.6731 24.9463C27.6776 24.8565 27.7237 24.8356 27.635 24.9506C27.5291 25.088 27.356 25.264 27.0331 25.5868L27.7402 26.2939L28.4473 27.0011C28.7328 26.7156 29.0158 26.4352 29.2188 26.1719C29.4392 25.8862 29.647 25.5205 29.6706 25.0459L28.6719 24.9961ZM27.7402 26.2939L27.0331 25.5868L25.5868 27.0331L26.2939 27.7402L27.0011 28.4473L28.4473 27.0011L27.7402 26.2939ZM26.2939 27.7402L25.5868 27.0331C25.264 27.356 25.0879 27.5292 24.9506 27.6351C24.8357 27.7237 24.8566 27.6776 24.9463 27.6731L24.9961 28.6719L25.0459 29.6706C25.5205 29.647 25.8861 29.4392 26.1719 29.2189C26.4352 29.0158 26.7156 28.7328 27.0011 28.4473L26.2939 27.7402ZM24.9961 28.6719L24.9466 27.6731C25.0365 27.6686 25.0622 27.7126 24.9393 27.6359C24.7921 27.5441 24.6001 27.3894 24.2466 27.1001L23.6133 27.874L22.98 28.6479C23.292 28.9032 23.5989 29.157 23.8807 29.3328C24.1866 29.5236 24.5709 29.6942 25.0456 29.6706L24.9961 28.6719ZM23.6133 27.874L24.2461 27.0997L23.9414 26.8507L23.3086 27.625L22.6758 28.3993L22.9804 28.6483L23.6133 27.874ZM23.3086 27.625L23.9419 26.8511C23.3328 26.3526 22.7886 25.9041 22.323 25.6258C21.856 25.3467 21.1934 25.0701 20.4669 25.371L20.8496 26.2949L21.2323 27.2188C21.0587 27.2907 20.9903 27.1593 21.297 27.3426C21.6049 27.5266 22.0139 27.8576 22.6753 28.3989L23.3086 27.625ZM20.8496 26.2949L20.4665 25.3712C19.7402 25.6725 19.4676 26.3368 19.3349 26.8641C19.2025 27.3902 19.135 28.0921 19.0567 28.8752L20.0518 28.9746L21.0468 29.074C21.1318 28.2236 21.1868 27.7003 21.2744 27.3522C21.3617 27.0053 21.4064 27.1466 21.2327 27.2186L20.8496 26.2949ZM20.0518 28.9746L19.0567 28.8754L19.0176 29.267L20.0127 29.3662L21.0078 29.4655L21.0468 29.0739L20.0518 28.9746ZM20.0127 29.3662L19.0177 29.2668C18.9722 29.7212 18.9458 29.9664 18.9066 30.1352C18.8739 30.2761 18.861 30.2271 18.9276 30.1668L19.5986 30.9082L20.2697 31.6496C20.6219 31.3308 20.7733 30.9386 20.8548 30.5872C20.9299 30.2635 20.9676 29.867 21.0077 29.4656L20.0127 29.3662ZM19.5986 30.9082L18.9277 30.1667C18.9943 30.1064 19.0417 30.1242 18.8979 30.1428C18.7259 30.165 18.4791 30.167 18.0225 30.167V31.167V32.167C18.426 32.167 18.8244 32.1689 19.154 32.1263C19.5119 32.0801 19.9172 31.9685 20.2696 31.6497L19.5986 30.9082ZM18.0225 31.167V30.167H15.9766V31.167V32.167H18.0225V31.167ZM15.9766 31.167V30.167C15.5201 30.167 15.2736 30.1649 15.1018 30.1427C14.9585 30.1242 15.0058 30.1065 15.0722 30.1666L14.4014 30.9082L13.7305 31.6498C14.0826 31.9683 14.4876 32.08 14.8454 32.1262C15.1749 32.1688 15.5731 32.167 15.9766 32.167V31.167ZM14.4014 30.9082L15.0723 30.1667C15.1385 30.2266 15.1256 30.2751 15.0928 30.1344C15.0535 29.9658 15.0268 29.7206 14.9814 29.2666L13.9863 29.3662L12.9913 29.4658C13.0315 29.8677 13.0695 30.2642 13.1449 30.588C13.2268 30.9397 13.3785 31.3313 13.7304 31.6497L14.4014 30.9082ZM13.9863 29.3662L14.9814 29.267L14.9423 28.8754L13.9473 28.9746L12.9522 29.0739L12.9913 29.4655L13.9863 29.3662ZM13.9473 28.9746L14.9423 28.875C14.8639 28.0921 14.7964 27.3901 14.6641 26.8642C14.5316 26.337 14.259 25.6721 13.532 25.371L13.1494 26.2949L12.7668 27.2188C12.5927 27.1467 12.6373 27.0049 12.7245 27.3519C12.8121 27.7002 12.8671 28.2236 12.9522 29.0742L13.9473 28.9746ZM13.1494 26.2949L13.5319 25.371C12.805 25.0701 12.1421 25.3476 11.6756 25.6266C11.2102 25.9051 10.6661 26.3538 10.0571 26.8521L10.6904 27.626L11.3237 28.3999C11.9852 27.8586 12.3942 27.5273 12.7024 27.343C13.0096 27.1592 12.941 27.291 12.7669 27.2189L13.1494 26.2949ZM10.6904 27.626L10.0579 26.8515L9.75416 27.0995L10.3867 27.874L11.0193 28.6485L11.323 28.4005L10.6904 27.626ZM10.3867 27.874L9.75343 27.1001C9.39991 27.3894 9.20785 27.5441 9.0607 27.6359C8.93782 27.7126 8.96346 27.6686 9.05342 27.6731L9.00391 28.6719L8.95439 29.6706C9.42908 29.6942 9.81337 29.5236 10.1193 29.3327C10.401 29.157 10.708 28.9032 11.02 28.6479L10.3867 27.874ZM9.00391 28.6719L9.05369 27.6731C9.14346 27.6776 9.16433 27.7237 9.04943 27.6351C8.91207 27.5292 8.73603 27.356 8.41316 27.0331L7.70605 27.7402L6.99895 28.4473C7.28437 28.7328 7.56483 29.0158 7.8281 29.2189C8.11384 29.4392 8.4795 29.647 8.95413 29.6706L9.00391 28.6719ZM7.70605 27.7402L8.41316 27.0331L6.96687 25.5868L6.25977 26.2939L5.55266 27.0011L6.99895 28.4473L7.70605 27.7402ZM6.25977 26.2939L6.96687 25.5868C6.64405 25.264 6.47089 25.088 6.36495 24.9506C6.27631 24.8356 6.3224 24.8565 6.32688 24.9463L5.32812 24.9961L4.32937 25.0459C4.35305 25.5205 4.56084 25.8862 4.78116 26.1719C4.98419 26.4352 5.26725 26.7156 5.55266 27.0011L6.25977 26.2939ZM5.32812 24.9961L6.32689 24.9465C6.33137 25.0366 6.28739 25.0623 6.36408 24.9394C6.45592 24.7922 6.61063 24.6001 6.89996 24.2465L6.12598 23.6133L5.352 22.9801C5.09677 23.292 4.84301 23.599 4.66728 23.8807C4.4764 24.1866 4.30578 24.5709 4.32936 25.0457L5.32812 24.9961ZM6.12598 23.6133L6.90148 24.2446L7.14953 23.9399L6.37402 23.3086L5.59852 22.6773L5.35047 22.9819L6.12598 23.6133ZM6.37402 23.3086L7.148 23.9418C7.6462 23.3329 8.09494 22.7887 8.37339 22.3234C8.65248 21.8569 8.93014 21.1939 8.62894 20.4669L7.70508 20.8496L6.78122 21.2323C6.70903 21.0581 6.84095 20.9893 6.65715 21.2965C6.47271 21.6047 6.14142 22.0137 5.60004 22.6754L6.37402 23.3086ZM7.70508 20.8496L8.62891 20.4668C8.32782 19.7402 7.66323 19.4675 7.13589 19.3348C6.60986 19.2025 5.90787 19.135 5.12483 19.0567L5.02539 20.0518L4.92595 21.0468C5.77646 21.1318 6.2998 21.1868 6.64796 21.2744C6.99482 21.3617 6.85329 21.4063 6.78124 21.2324L7.70508 20.8496ZM5.02539 20.0518L5.12465 19.0567L4.73305 19.0176L4.63379 20.0127L4.53453 21.0078L4.92613 21.0468L5.02539 20.0518ZM4.63379 20.0127L4.73323 19.0177C4.27883 18.9722 4.03364 18.9457 3.86483 18.9066C3.72387 18.8739 3.77292 18.861 3.83323 18.9276L3.0918 19.5986L2.35037 20.2697C2.66921 20.622 3.06138 20.7733 3.41285 20.8548C3.73647 20.9299 4.133 20.9676 4.53435 21.0077L4.63379 20.0127ZM3.0918 19.5986L3.83333 18.9277C3.89362 18.9943 3.8758 19.0417 3.85723 18.8979C3.83502 18.7259 3.83301 18.4791 3.83301 18.0225H2.83301H1.83301C1.83301 18.426 1.83114 18.8244 1.8737 19.154C1.9199 19.5118 2.03149 19.9172 2.35026 20.2695L3.0918 19.5986ZM2.83301 18.0225H3.83301V15.9766H2.83301H1.83301V18.0225H2.83301ZM2.83301 15.9766H3.83301C3.83301 15.5201 3.83505 15.2736 3.85725 15.1018C3.87579 14.9585 3.89351 15.0058 3.83341 15.0722L3.0918 14.4014L2.35018 13.7305C2.03169 14.0826 1.92002 14.4876 1.87376 14.8454C1.83116 15.1749 1.83301 15.5731 1.83301 15.9766H2.83301ZM3.0918 14.4014L3.83328 15.0723C3.77339 15.1385 3.72486 15.1256 3.86562 15.0928C4.03415 15.0535 4.27939 15.0268 4.73339 14.9814L4.63379 13.9863L4.53419 12.9913C4.13234 13.0315 3.73584 13.0695 3.41196 13.1449C3.06032 13.2268 2.66872 13.3785 2.35031 13.7304L3.0918 14.4014ZM4.63379 13.9863L4.7328 14.9814L5.12538 14.9424L5.02637 13.9473L4.92735 12.9522L4.53478 12.9912L4.63379 13.9863ZM5.02637 13.9473L5.12597 14.9423C5.9087 14.8639 6.61049 14.7964 7.13631 14.6641C7.66354 14.5314 8.32799 14.2588 8.62897 13.5321L7.70508 13.1494L6.78119 12.7668C6.85322 12.5928 6.99489 12.6373 6.64829 12.7245C6.30027 12.8121 5.77718 12.8671 4.92677 12.9522L5.02637 13.9473ZM7.70508 13.1494L8.62899 13.532C8.92992 12.8053 8.65283 12.1428 8.3738 11.6762C8.09553 11.2109 7.64704 10.667 7.14898 10.0582L6.375 10.6914L5.60102 11.3246C6.14217 11.9861 6.47316 12.3948 6.65735 12.7027C6.84078 13.0095 6.70913 12.9408 6.78117 12.7668L7.70508 13.1494ZM6.375 10.6914L7.15028 10.0598L6.90126 9.75412L6.12598 10.3857L5.3507 11.0174L5.59972 11.323L6.375 10.6914ZM6.12598 10.3857L6.89996 9.75253C6.61063 9.39888 6.45592 9.20684 6.36408 9.05965C6.28739 8.93675 6.33137 8.96247 6.32689 9.05252L5.32812 9.00293L4.32936 8.95334C4.30578 9.42813 4.4764 9.81245 4.66728 10.1184C4.84301 10.4 5.09677 10.707 5.352 11.019L6.12598 10.3857ZM5.32812 9.00293L6.32688 9.05276C6.3224 9.14255 6.27631 9.16339 6.36495 9.04844C6.47089 8.91106 6.64405 8.73501 6.96687 8.41218L6.25977 7.70508L5.55266 6.99797C5.26725 7.28338 4.98419 7.56384 4.78116 7.82713C4.56084 8.11284 4.35305 8.47849 4.32937 8.9531L5.32812 9.00293ZM6.25977 7.70508L6.96687 8.41218L8.41316 6.9659L7.70605 6.25879L6.99895 5.55168L5.55266 6.99797L6.25977 7.70508ZM7.70605 6.25879L8.41316 6.9659C8.73604 6.64302 8.91207 6.46987 9.04943 6.36394C9.16433 6.27534 9.14346 6.32143 9.05369 6.32591L9.00391 5.32715L8.95413 4.32839C8.4795 4.35204 8.11384 4.55981 7.82811 4.78016C7.56483 4.98319 7.28437 5.26626 6.99895 5.55168L7.70605 6.25879ZM9.00391 5.32715L9.05342 6.32592C8.96346 6.33038 8.93782 6.28646 9.0607 6.36313C9.20785 6.45493 9.39991 6.60963 9.75343 6.89891L10.3867 6.125L11.02 5.35109C10.708 5.09578 10.401 4.84202 10.1193 4.66628C9.81337 4.47539 9.42908 4.30484 8.95439 4.32838L9.00391 5.32715ZM10.3867 6.125L9.75538 6.90051L10.0601 7.14855L10.6914 6.37305L11.3227 5.59754L11.0181 5.34949L10.3867 6.125ZM10.6914 6.37305L10.0581 7.14696C10.6668 7.64507 11.2107 8.09378 11.6759 8.37221C12.1422 8.65134 12.8049 8.929 13.5319 8.62807L13.1494 7.7041L12.7669 6.78013C12.9412 6.70801 13.01 6.83989 12.7031 6.65617C12.395 6.47174 11.9863 6.14051 11.3247 5.59913L10.6914 6.37305ZM13.1494 7.7041L13.532 8.62802C14.259 8.32696 14.5316 7.66198 14.6641 7.13482C14.7964 6.60887 14.8639 5.90686 14.9423 5.12403L13.9473 5.02441L12.9522 4.9248C12.8671 5.7754 12.8121 6.29878 12.7245 6.64708C12.6372 6.99417 12.5926 6.85232 12.7668 6.78019L13.1494 7.7041ZM13.9473 5.02441L14.9423 5.12392L14.9814 4.73329L13.9863 4.63379L12.9913 4.53429L12.9522 4.92491L13.9473 5.02441ZM13.9863 4.63379L14.9814 4.73341C15.0268 4.2794 15.0535 4.03416 15.0928 3.86562C15.1256 3.72484 15.1385 3.77338 15.0723 3.83329L14.4014 3.0918L13.7304 2.35031C13.3785 2.66873 13.2268 3.06035 13.1449 3.41197C13.0695 3.73584 13.0315 4.13234 12.9913 4.53417L13.9863 4.63379ZM14.4014 3.0918L15.0722 3.83342C15.0058 3.89351 14.9585 3.87579 15.1019 3.85725C15.2736 3.83505 15.5201 3.83301 15.9766 3.83301V2.83301V1.83301C15.5731 1.83301 15.1749 1.83116 14.8454 1.87376C14.4876 1.92002 14.0826 2.03169 13.7305 2.35018L14.4014 3.0918ZM15.9766 2.83301V3.83301H18.0225V2.83301V1.83301H15.9766V2.83301ZM17 11.333V10.333C13.3181 10.333 10.333 13.3181 10.333 17H11.333H12.333C12.333 14.4227 14.4227 12.333 17 12.333V11.333ZM11.333 17H10.333C10.333 20.6819 13.3181 23.667 17 23.667V22.667V21.667C14.4227 21.667 12.333 19.5773 12.333 17H11.333ZM17 22.667V23.667C20.6819 23.667 23.667 20.6819 23.667 17H22.667H21.667C21.667 19.5773 19.5773 21.667 17 21.667V22.667ZM22.667 17H23.667C23.667 13.3181 20.6819 10.333 17 10.333V11.333V12.333C19.5773 12.333 21.667 14.4227 21.667 17H22.667Z" fill="white"/>
</svg>
