<svg width="19" height="21" viewBox="0 0 19 21" fill="none" xmlns="http://www.w3.org/2000/svg">
<path d="M9.4469 2.88867L9.58362 2.92676C9.8817 3.03744 10.0361 3.28195 10.1051 3.44336C10.1791 3.61662 10.2068 3.80288 10.2213 3.94531C10.2512 4.23938 10.2496 4.64957 10.2496 5.11328V8.1748H10.4518C11.1067 8.1748 11.6837 8.17345 12.1285 8.23926C12.5303 8.29875 12.9656 8.43133 13.2838 8.78809L13.4127 8.95605L13.5162 9.13867C13.7227 9.57031 13.6782 10.0232 13.5778 10.417C13.4666 10.8526 13.2419 11.3834 12.9889 11.9873L11.153 16.3701C10.9739 16.7977 10.8166 17.1759 10.6754 17.4355C10.6069 17.5614 10.509 17.7232 10.3737 17.8545C10.2297 17.9941 9.94176 18.1892 9.55334 18.1113C9.16454 18.0332 8.97398 17.7411 8.89514 17.5566C8.82114 17.3834 8.79343 17.1972 8.77893 17.0547C8.74899 16.7606 8.74963 16.3504 8.74963 15.8867V12.8252H8.54749C7.89272 12.8252 7.31646 12.8265 6.8717 12.7607C6.41238 12.6928 5.90978 12.5283 5.58752 12.0439C5.26551 11.5596 5.30773 11.0328 5.42249 10.583C5.53364 10.1473 5.75837 9.61667 6.01135 9.0127L7.84729 4.62988C8.02639 4.2023 8.18364 3.82409 8.32483 3.56445C8.39328 3.4386 8.49031 3.27678 8.62561 3.14551C8.75162 3.02328 8.98854 2.858 9.30627 2.87109L9.4469 2.88867Z" stroke="#0F1137" stroke-width="1.5"/>
</svg>
