<svg width="107" height="131" viewBox="0 0 107 131" fill="none" xmlns="http://www.w3.org/2000/svg">
<g clip-path="url(#clip0_16_339)">
<path d="M52.1372 80.5495C44.2638 81.3454 39.1505 89.4843 41.9364 96.8529C45.129 105.308 56.2988 107.713 62.537 100.952C70.246 92.5909 63.48 79.4027 52.1372 80.5581M100.476 91.9405V76.4758L88.995 65.8551L77.5137 76.4758V91.9405H100.476ZM29.5034 76.2533C29.3217 76.2448 29.1833 76.1677 29.0535 76.0394C25.4542 72.5733 21.855 69.0901 18.0394 65.8551L6.53219 76.4673V91.9319H29.5034V76.2448V76.2533ZM32.4624 79.0433V91.9405H38.242C38.5621 86.0439 42.3171 80.8063 47.8804 78.6753C57.7956 74.8926 68.1089 81.5936 68.7665 91.9405H74.6931C74.745 91.7779 74.546 91.6153 74.546 91.5725V79.2572C74.546 79.1973 74.9267 79.0005 74.4768 79.0347C73.6289 79.7622 73.3001 80.695 71.9937 80.4639C71.0939 80.3099 70.5488 79.1118 71.1458 78.3758C76.562 73.626 81.5888 68.3028 86.9963 63.5701C88.9344 61.8756 89.0642 61.8756 91.0023 63.5701C96.3233 68.2172 101.168 73.4291 106.507 78.0591C107.744 79.2145 106.498 80.9518 104.932 80.4212C104.361 80.2243 103.842 79.3257 103.297 79.0347V93.4724C103.297 94.0543 102.215 94.8502 101.601 94.7219H68.6367C66.9063 105.693 54.1358 111.581 44.731 104.949C41.2269 102.484 39.1764 98.8469 38.3112 94.7048L5.42472 94.7219C4.80177 94.8502 3.72892 94.0458 3.72892 93.4724V79.0347C2.90697 79.591 2.46572 80.6522 1.29769 80.4896C0.406527 80.3698 -0.311594 79.3257 0.16427 78.5127C0.45844 78.0163 2.55224 76.1421 3.13193 75.5858C6.9994 71.8801 11.1351 68.0033 15.1323 64.4431C15.6342 63.998 17.1656 62.5346 17.6414 62.3891C18.7575 62.0553 19.5622 63.0395 20.3149 63.7156C21.1455 64.4516 21.8636 65.316 22.6856 66.0605C27.1327 70.1599 31.6145 74.225 36.0271 78.3586C36.3731 78.9064 36.1136 79.805 35.6291 80.1815C34.3572 81.1657 33.4055 79.6937 32.4624 79.0262" fill="#0F1137"/>
<path d="M75.3595 53.249C71.4315 53.48 67.0449 53.249 63.065 53.249C63.0304 53.249 62.9006 53.0265 62.84 53.1035L63.5841 59.4023H77.9552L75.5845 53.0949C75.4807 53.0949 75.4028 53.2404 75.3682 53.2404M60.6164 59.4023L59.881 53.1634L47.1365 53.0949L46.3924 59.3937H60.6164V59.4023ZM43.4248 59.4023L44.3073 53.3174C44.0823 52.958 43.9958 53.249 43.9439 53.249H31.6493C31.6493 53.249 31.5282 53.0949 31.433 53.1035L29.2095 59.4108H43.4334L43.4248 59.4023ZM74.5462 50.3135L72.5476 45.3327H61.8018L62.3901 50.3135H74.5376H74.5462ZM47.4307 50.3135H59.5782L58.9033 45.3241H48.019L47.4307 50.3135ZM45.2071 45.3327H34.4613L32.6097 50.3135H44.6101L45.1985 45.3327H45.2071ZM54.9839 62.1837V66.7281H64.9857C64.9857 66.7281 65.5827 67.0447 65.6606 67.1303C66.3614 67.892 66.1018 69.3298 64.9771 69.5095L42.3087 69.5266C41.2618 69.4667 40.7513 68.3113 41.2272 67.4127C41.3223 67.2416 41.8847 66.7367 42.0232 66.7367H52.172V62.1923H26.908C26.8648 62.1923 26.2159 61.7729 26.1466 61.7044C25.5669 61.1054 25.7054 60.4378 25.9044 59.7361C27.4531 54.3701 30.4208 48.8329 32.0993 43.4327L32.9039 42.6197L73.5945 42.5512C74.3645 42.5256 74.7193 43.0219 75.0221 43.6296C77.5052 48.6019 78.8377 54.9007 81.3208 59.9757C81.5631 60.5234 81.4333 61.3536 80.992 61.7643C80.9142 61.8328 80.2912 62.2008 80.2479 62.2008H54.9839V62.1837Z" fill="#0F1137"/>
<path d="M58.2975 119.001C59.2666 119.96 60.9018 120.046 62.0525 119.378C64.9856 117.675 62.4246 112.643 59.1454 114.303C57.4496 115.167 56.9132 117.632 58.2975 119.001ZM46.3577 113.952C42.8277 114.303 42.6027 120.388 47.1883 119.772C50.7876 119.284 49.8531 113.61 46.3577 113.952ZM42.0922 120.516C39.6524 117.418 40.9761 112.634 44.8263 111.427C49.5763 109.93 53.8071 114.697 51.895 119.155C51.6008 119.849 51.099 120.345 50.8308 120.961C51.8604 121.406 52.8208 122.048 53.5735 122.87C54.3868 122.159 55.2607 121.321 56.3162 120.961C52.0681 116.52 56.7575 109.271 62.589 111.607C66.145 113.028 67.3995 117.598 64.9077 120.525C75.2037 118.659 83.5962 111.582 86.6157 101.62C86.9185 100.618 87.2646 98.051 87.6626 97.3835C88.3461 96.2196 90.2582 96.8272 90.2063 98.2907C90.1804 99.0352 89.6959 100.875 89.4882 101.688C86.7715 112.292 78.1713 120.337 67.4168 122.733C68.8531 124.119 71.0766 128.638 69.9173 130.409C69.4241 131.163 68.109 131.188 67.5639 130.427C67.1226 129.802 67.2351 128.321 66.9323 127.388C65.2625 122.313 58.4014 120.867 55.2953 125.463C55.875 126.764 57.4756 131.145 54.7502 131.009C53.063 130.923 53.4178 129.1 53.1582 127.97C51.8691 122.262 44.1774 120.722 40.8636 125.694C39.86 127.209 39.9811 127.893 39.7043 129.528C39.3928 131.359 37.2384 131.402 36.8231 130.059C36.1742 127.979 38.095 124.222 39.5745 122.724C28.6729 120.123 19.8824 111.95 17.4512 101.004C17.2695 100.173 16.7244 98.2564 17.0186 97.5461C17.3993 96.6218 18.8442 96.5277 19.4065 97.3065C19.7267 97.7429 20.1247 100.405 20.3583 101.209C23.2481 111.427 31.7271 118.394 42.1009 120.525" fill="#0F1137"/>
<path d="M51.9903 11.5193C64.804 10.227 69.9 26.6844 59.232 32.7521C51.8345 36.9628 42.5509 31.8878 41.9625 23.5435C41.5559 17.7839 46.1069 12.1098 51.9903 11.5108" fill="#0F1137"/>
<path d="M77.0119 23.1499C76.7005 23.4494 76.0775 23.5949 75.6536 23.6377C74.3385 23.766 71.0247 23.8003 69.7442 23.6291C67.7975 23.3724 67.7975 20.9846 69.7442 20.7193C70.8949 20.5653 74.9701 20.5482 76.0948 20.7193C77.2888 20.8991 77.8685 22.3283 77.0206 23.1499" fill="#0F1137"/>
<path d="M30.7926 20.745C31.6665 20.5739 36.4857 20.5824 37.3941 20.745C39.1505 21.0617 39.1332 23.3553 37.1173 23.6291C35.9493 23.7832 32.2462 23.7832 31.0954 23.6035C29.2006 23.3125 29.2439 21.0531 30.7926 20.745Z" fill="#0F1137"/>
<path d="M42.9314 12.1612C41.9451 13.1197 40.9847 12.3666 40.2406 11.6306C38.9428 10.3468 37.8526 8.80638 36.5375 7.52265C36.0357 5.6912 37.8526 4.75836 39.2024 6.05064C40.578 7.3686 41.7893 9.14014 43.1823 10.4667C43.5543 10.963 43.338 11.7675 42.9227 12.1612" fill="#0F1137"/>
<path d="M67.9272 5.95649C69.2769 4.75835 70.9641 5.80245 70.4622 7.51408L66.0237 12.2125C64.7519 13.2138 63.0561 11.99 63.6877 10.4838L67.9272 5.95649Z" fill="#0F1137"/>
<path d="M52.5093 0.385124C53.3918 -0.410786 54.7848 0.102704 54.9751 1.30085C55.1482 2.38774 55.1309 6.46999 54.9751 7.58255C54.7329 9.25995 52.3968 9.25995 52.1805 7.88209C51.9988 6.71817 52.0161 2.36206 52.1632 1.13824C52.1978 0.890056 52.3276 0.547729 52.5093 0.385124Z" fill="#0F1137"/>
<path d="M66.3441 31.7423C66.6642 31.7252 67.0968 31.9562 67.3564 32.136L71.8814 36.3038C72.5562 37.6218 71.2325 38.9654 69.8914 38.2722C69.3982 38.0154 65.4529 34.3697 65.1414 33.8904C64.5531 32.9747 65.2885 31.7936 66.3441 31.7423Z" fill="#0F1137"/>
<path d="M40.6906 31.7765C41.8067 31.7765 42.5162 33.1116 41.8673 34.0358L37.1433 38.3064C35.5599 38.9825 34.4698 37.4078 35.3523 36.0984C36.7193 35.0714 37.896 33.6507 39.2025 32.581C39.6351 32.2215 40.1023 31.7765 40.682 31.7765" fill="#0F1137"/>
<path d="M19.8651 81.9702H16.3091V85.4876H19.8651V81.9702ZM14.6392 79.2145C15.4958 79.0177 20.2717 79.0604 21.2754 79.1803C21.8551 79.2487 22.4607 79.6681 22.5386 80.2757C22.7116 81.5766 22.6943 85.7102 22.5386 87.0281C22.452 87.7213 21.9935 88.192 21.2754 88.2776C19.9429 88.4317 16.2312 88.4317 14.8988 88.2776C14.3191 88.2091 13.7135 87.7898 13.6356 87.1822C13.3501 85.0683 13.8606 82.3297 13.6443 80.1388C13.7135 79.7879 14.2845 79.2915 14.6306 79.2145" fill="#0F1137"/>
<path d="M90.6908 81.9702H87.1348V85.4876H90.6908V81.9702ZM85.4649 79.2145C86.3301 79.0177 91.0974 79.0604 92.101 79.1803C92.8019 79.2658 93.2777 79.7194 93.3643 80.4298C93.5286 81.8076 93.5286 85.6502 93.3643 87.0281C93.2777 87.7213 92.8192 88.192 92.101 88.2776C90.7686 88.4317 87.0569 88.4317 85.7245 88.2776C85.1448 88.2091 84.5392 87.7898 84.4613 87.1822C84.1758 85.0683 84.6862 82.3297 84.4699 80.1388C84.5391 79.7879 85.1102 79.2915 85.4563 79.2145" fill="#0F1137"/>
<path d="M54.6896 90.6225H58.7647C59.1627 90.6225 59.5088 91.8292 59.1714 92.1972C56.8266 95.0129 54.8713 98.3848 52.5266 101.166C51.6614 102.193 50.4847 102.364 50.3809 100.815L52.4574 95.0214H48.2352C48.1313 95.0214 47.6295 94.3796 47.5949 94.1827C47.5516 93.9003 47.6987 93.6607 47.8112 93.421C48.5466 91.8378 50.7789 89.0393 51.895 87.4988C52.4141 86.7885 54.2137 84.0584 54.7502 83.7332C55.624 83.194 56.818 83.776 56.7661 84.8372L54.6809 90.6311L54.6896 90.6225Z" fill="#0F1137"/>
</g>
<defs>
<clipPath id="clip0_16_339">
<rect width="107" height="131" fill="white"/>
</clipPath>
</defs>
</svg>
