<svg width="135" height="137" viewBox="0 0 135 137" fill="none" xmlns="http://www.w3.org/2000/svg">
<path d="M91.0905 132.429C74.8135 138.786 56.7435 138.503 40.6676 131.639C24.5917 124.775 11.7579 111.863 4.85579 95.6083L66.8452 68.5L91.0905 132.429Z" fill="#0F1137"/>
<path d="M6.03842 96.2693C-1.17745 80.3629 -1.95644 62.281 3.86473 45.8131C9.68589 29.3451 21.6553 15.7695 37.2645 7.93153L67.5993 68.3422L6.03842 96.2693Z" fill="#FFD84F"/>
<path d="M11.6924 29.008C17.7865 20.2431 25.824 13.0532 35.1573 8.01734C44.4906 2.98148 54.8589 0.240502 65.4271 0.0151307C75.9953 -0.210241 86.4679 2.08633 96.0014 6.71983C105.535 11.3533 113.863 18.1943 120.315 26.6916C126.766 35.189 131.161 45.1052 133.145 55.6417C135.13 66.1781 134.648 77.0402 131.738 87.353C128.829 97.6658 123.574 107.141 116.396 115.016C109.218 122.89 100.318 128.944 90.4123 132.689L66.8452 68.5L11.6924 29.008Z" fill="#4BAE66"/>
<path d="M89.0855 45.364C89.0855 44.78 89.2535 44.324 89.5895 43.996C89.9335 43.66 90.3735 43.492 90.9095 43.492C91.4455 43.492 91.8815 43.66 92.2175 43.996C92.5615 44.324 92.7335 44.78 92.7335 45.364C92.7335 45.948 92.5615 46.408 92.2175 46.744C91.8815 47.08 91.4455 47.248 90.9095 47.248C90.3735 47.248 89.9335 47.08 89.5895 46.744C89.2535 46.408 89.0855 45.948 89.0855 45.364ZM96.4055 43.648L91.6175 52H90.2735L95.0615 43.648H96.4055ZM90.9095 44.32C90.4055 44.32 90.1535 44.668 90.1535 45.364C90.1535 46.068 90.4055 46.42 90.9095 46.42C91.1495 46.42 91.3335 46.336 91.4615 46.168C91.5975 45.992 91.6655 45.724 91.6655 45.364C91.6655 44.668 91.4135 44.32 90.9095 44.32ZM93.9695 50.272C93.9695 49.688 94.1375 49.232 94.4735 48.904C94.8175 48.568 95.2575 48.4 95.7935 48.4C96.3215 48.4 96.7535 48.568 97.0895 48.904C97.4335 49.232 97.6055 49.688 97.6055 50.272C97.6055 50.856 97.4335 51.316 97.0895 51.652C96.7535 51.988 96.3215 52.156 95.7935 52.156C95.2575 52.156 94.8175 51.988 94.4735 51.652C94.1375 51.316 93.9695 50.856 93.9695 50.272ZM95.7815 49.228C95.2775 49.228 95.0255 49.576 95.0255 50.272C95.0255 50.968 95.2775 51.316 95.7815 51.316C96.2855 51.316 96.5375 50.968 96.5375 50.272C96.5375 49.576 96.2855 49.228 95.7815 49.228Z" fill="white"/>
<path d="M21.5855 64.364C21.5855 63.78 21.7535 63.324 22.0895 62.996C22.4335 62.66 22.8735 62.492 23.4095 62.492C23.9455 62.492 24.3815 62.66 24.7175 62.996C25.0615 63.324 25.2335 63.78 25.2335 64.364C25.2335 64.948 25.0615 65.408 24.7175 65.744C24.3815 66.08 23.9455 66.248 23.4095 66.248C22.8735 66.248 22.4335 66.08 22.0895 65.744C21.7535 65.408 21.5855 64.948 21.5855 64.364ZM28.9055 62.648L24.1175 71H22.7735L27.5615 62.648H28.9055ZM23.4095 63.32C22.9055 63.32 22.6535 63.668 22.6535 64.364C22.6535 65.068 22.9055 65.42 23.4095 65.42C23.6495 65.42 23.8335 65.336 23.9615 65.168C24.0975 64.992 24.1655 64.724 24.1655 64.364C24.1655 63.668 23.9135 63.32 23.4095 63.32ZM26.4695 69.272C26.4695 68.688 26.6375 68.232 26.9735 67.904C27.3175 67.568 27.7575 67.4 28.2935 67.4C28.8215 67.4 29.2535 67.568 29.5895 67.904C29.9335 68.232 30.1055 68.688 30.1055 69.272C30.1055 69.856 29.9335 70.316 29.5895 70.652C29.2535 70.988 28.8215 71.156 28.2935 71.156C27.7575 71.156 27.3175 70.988 26.9735 70.652C26.6375 70.316 26.4695 69.856 26.4695 69.272ZM28.2815 68.228C27.7775 68.228 27.5255 68.576 27.5255 69.272C27.5255 69.968 27.7775 70.316 28.2815 70.316C28.7855 70.316 29.0375 69.968 29.0375 69.272C29.0375 68.576 28.7855 68.228 28.2815 68.228Z" fill="white"/>
<path d="M50.0855 102.364C50.0855 101.78 50.2535 101.324 50.5895 100.996C50.9335 100.66 51.3735 100.492 51.9095 100.492C52.4455 100.492 52.8815 100.66 53.2175 100.996C53.5615 101.324 53.7335 101.78 53.7335 102.364C53.7335 102.948 53.5615 103.408 53.2175 103.744C52.8815 104.08 52.4455 104.248 51.9095 104.248C51.3735 104.248 50.9335 104.08 50.5895 103.744C50.2535 103.408 50.0855 102.948 50.0855 102.364ZM57.4055 100.648L52.6175 109H51.2735L56.0615 100.648H57.4055ZM51.9095 101.32C51.4055 101.32 51.1535 101.668 51.1535 102.364C51.1535 103.068 51.4055 103.42 51.9095 103.42C52.1495 103.42 52.3335 103.336 52.4615 103.168C52.5975 102.992 52.6655 102.724 52.6655 102.364C52.6655 101.668 52.4135 101.32 51.9095 101.32ZM54.9695 107.272C54.9695 106.688 55.1375 106.232 55.4735 105.904C55.8175 105.568 56.2575 105.4 56.7935 105.4C57.3215 105.4 57.7535 105.568 58.0895 105.904C58.4335 106.232 58.6055 106.688 58.6055 107.272C58.6055 107.856 58.4335 108.316 58.0895 108.652C57.7535 108.988 57.3215 109.156 56.7935 109.156C56.2575 109.156 55.8175 108.988 55.4735 108.652C55.1375 108.316 54.9695 107.856 54.9695 107.272ZM56.7815 106.228C56.2775 106.228 56.0255 106.576 56.0255 107.272C56.0255 107.968 56.2775 108.316 56.7815 108.316C57.2855 108.316 57.5375 107.968 57.5375 107.272C57.5375 106.576 57.2855 106.228 56.7815 106.228Z" fill="white"/>
</svg>
