<svg width="15" height="15" viewBox="0 0 15 15" fill="none" xmlns="http://www.w3.org/2000/svg">
<g clip-path="url(#clip0_16_364)">
<path d="M14.5874 0.29047C14.0999 -0.145014 13.3593 -0.0869498 12.9374 0.416276L6.8624 7.67434L5.42802 5.96144C5.00615 5.45821 4.26552 5.40015 3.77802 5.83563C3.29052 6.27111 3.23427 7.03563 3.65615 7.53886L5.97177 10.3066C6.19677 10.5679 6.51552 10.7227 6.85302 10.7227C7.19052 10.7227 7.51865 10.5679 7.73427 10.3066L14.7093 1.9937C15.1311 1.49047 15.0749 0.725953 14.5874 0.29047Z" fill="white"/>
<path d="M12.6 7.58711C12.2812 7.58711 12.0187 7.85807 12.0187 8.18711C12.0187 9.68711 11.4563 11.0903 10.425 12.1452C9.40312 13.2 8.03438 13.7903 6.59063 13.7903C3.6 13.7903 1.1625 11.2742 1.1625 8.18711C1.1625 6.68711 1.725 5.28388 2.75625 4.22904C3.77813 3.1742 5.14688 2.59356 6.59063 2.59356C6.89062 2.59356 7.19062 2.62259 7.49062 2.67098C7.80937 2.72904 8.10938 2.50646 8.16562 2.17743C8.22188 1.8484 8.00625 1.53872 7.6875 1.48065C7.33125 1.42259 6.96562 1.38388 6.6 1.38388C4.8375 1.38388 3.17812 2.09033 1.94062 3.37743C0.684375 4.66453 0 6.37743 0 8.18711C0 11.9419 2.9625 14.9903 6.59063 14.9903C8.35313 14.9903 10.0125 14.2839 11.25 12.9968C12.4969 11.7097 13.1813 10.0065 13.1813 8.18711C13.1813 7.85807 12.9187 7.58711 12.6 7.58711Z" fill="white"/>
</g>
<defs>
<clipPath id="clip0_16_364">
<rect width="15" height="15" fill="white"/>
</clipPath>
</defs>
</svg>
