<svg width="198" height="71" viewBox="0 0 198 71" fill="none" xmlns="http://www.w3.org/2000/svg">
<g clip-path="url(#clip0_16_839)">
<path d="M47.6234 24.7549C46.6292 24.7549 45.8338 25.5404 45.8338 26.5222V27.5532C43.9945 25.9086 41.7575 24.9635 39.1476 24.7181V28.1914C41.9812 28.4123 44.2182 29.6641 45.8338 31.9224V42.3423C44.0442 44.8951 41.5089 46.1715 38.2777 46.1715C35.643 46.1715 33.406 45.3369 31.6661 43.6187C30.4233 42.3914 29.6403 40.9309 29.3172 39.2494H25.6883C26.0487 41.9004 27.1672 44.1587 29.0314 46.0856C31.3678 48.4911 34.3008 49.6693 37.8427 49.6693C40.9745 49.6693 43.6589 48.6875 45.8462 46.7238V47.7056C45.8462 48.6875 46.6416 49.4729 47.6358 49.4729C48.63 49.4729 49.4254 48.6875 49.4254 47.7056V26.5345C49.4254 25.5526 48.63 24.7672 47.6358 24.7672" fill="#0F1137"/>
<path d="M58.1249 12.0277C57.1307 12.0277 56.3353 12.8131 56.3353 13.795V47.6933C56.3353 48.6752 57.1307 49.4607 58.1249 49.4607C59.1191 49.4607 59.9145 48.6752 59.9145 47.6933V13.795C59.9145 12.8131 59.1191 12.0277 58.1249 12.0277Z" fill="#0F1137"/>
<path d="M81.4022 26.9149C81.4022 25.884 80.6565 25.1476 79.6126 25.1476H73.6473V21.9566C73.6473 17.7837 75.8346 15.3291 79.3641 15.3291C80.2091 15.3291 81.0542 15.4764 81.7999 15.8201C83.0427 16.3601 83.9872 15.9673 84.3849 15.1328C84.8323 14.3473 84.4346 13.2181 83.2415 12.629C82.0485 12.089 80.756 11.8436 79.3143 11.8436C73.7467 11.8436 70.068 15.82 70.068 21.9689V25.1599H67.3836C66.3397 25.1599 65.594 25.8963 65.594 26.9272C65.594 27.9582 66.3397 28.6455 67.3836 28.6455H70.068V47.7056C70.068 48.6875 70.8634 49.4729 71.8576 49.4729C72.8519 49.4729 73.6473 48.6875 73.6473 47.7056V28.6455H79.6126C80.6565 28.6455 81.4022 27.9091 81.4022 26.9272" fill="#0F1137"/>
<path d="M100.305 42.3423C98.5153 44.8951 95.98 46.1715 92.7488 46.1715C90.1141 46.1715 87.8771 45.3369 86.1372 43.6187C84.3973 41.9004 83.5522 39.7404 83.6019 37.1385C83.5522 34.5366 84.3973 32.4256 86.1372 30.7073C87.8771 28.9891 90.0644 28.1545 92.6991 28.1545C95.98 28.1545 98.5153 29.4309 100.305 31.9347V42.3545V42.3423ZM102.095 24.7549C101.1 24.7549 100.305 25.5404 100.305 26.5222V27.5532C98.1673 25.6386 95.4829 24.6567 92.3014 24.6567C88.7719 24.6567 85.7892 25.8349 83.4404 28.2405C81.1039 30.5969 79.9606 33.5424 80.0103 37.1262C79.9606 40.7099 81.1536 43.6555 83.4901 46.0733C85.8265 48.4788 88.7595 49.657 92.3014 49.657C95.4332 49.657 98.1176 48.6752 100.305 46.7115V47.6933C100.305 48.6752 101.1 49.4607 102.095 49.4607C103.089 49.4607 103.884 48.6752 103.884 47.6933V26.5222C103.884 25.5404 103.089 24.7549 102.095 24.7549Z" fill="#0F1137"/>
<path d="M127.82 43.6187C126.08 45.3369 123.943 46.1715 121.407 46.1715C118.872 46.1715 116.635 45.3369 114.895 43.6187C113.155 41.9004 112.31 39.6913 112.31 37.0894C112.31 34.4875 113.155 32.4256 114.895 30.7074C116.635 28.9891 118.822 28.1545 121.457 28.1545C123.943 28.1545 126.08 28.9891 127.87 30.7074C128.218 31.051 128.615 31.1983 129.113 31.1983C130.604 31.1983 131.449 29.2837 130.306 28.1545C127.87 25.8472 124.937 24.669 121.407 24.669C117.878 24.669 114.796 25.8472 112.347 28.2527C109.912 30.6583 108.719 33.6038 108.719 37.1385C108.719 40.6731 109.912 43.6678 112.298 46.0733C114.734 48.4788 117.766 49.657 121.407 49.657C125.049 49.657 127.92 48.4788 130.306 46.1224C130.654 45.8278 130.853 45.386 130.853 44.846C130.853 43.3732 128.914 42.5386 127.82 43.6187Z" fill="#0F1137"/>
<path d="M153.036 43.5696C151.296 45.2878 149.159 46.1224 146.524 46.1224C143.889 46.1224 141.702 45.2878 139.962 43.5696C138.222 41.8513 137.377 39.7404 137.377 37.1385C137.377 34.5366 138.222 32.4747 139.962 30.7564C141.702 29.0382 143.889 28.1545 146.524 28.1545C149.159 28.1545 151.296 29.0382 153.036 30.7564C154.776 32.4747 155.671 34.5857 155.671 37.1385C155.671 39.6913 154.776 41.8513 153.036 43.5696ZM146.524 24.6567C142.895 24.6567 139.863 25.8349 137.427 28.2405C134.991 30.5969 133.798 33.5424 133.798 37.1262C133.798 40.7099 134.991 43.6555 137.427 46.0733C139.863 48.4788 142.895 49.657 146.524 49.657C150.153 49.657 153.185 48.4788 155.621 46.1224C158.057 43.7169 159.25 40.7222 159.25 37.1262C159.25 33.5302 158.057 30.5969 155.621 28.2405C153.185 25.8349 150.153 24.6567 146.524 24.6567Z" fill="#0F1137"/>
<path d="M190.046 24.6567C186.417 24.6567 183.683 26.2277 181.881 29.4187C180.539 26.2277 178.252 24.6567 174.971 24.6567C171.69 24.6567 169.404 25.9331 167.713 28.535V26.5222C167.713 25.5404 166.918 24.7549 165.924 24.7549C164.88 24.7549 164.134 25.5404 164.134 26.5222V47.6933C164.134 48.6752 164.88 49.4607 165.924 49.4607C166.968 49.4607 167.713 48.6752 167.713 47.6933V37.6171C167.713 31.7751 170.05 28.1914 174.424 28.1914C177.457 28.1914 179.246 30.7442 179.246 35.2116V47.6933C179.246 48.7243 179.992 49.4607 181.036 49.4607C182.08 49.4607 182.826 48.7243 182.826 47.6933V37.6171C182.826 31.7751 185.162 28.1914 189.537 28.1914C192.569 28.1914 194.359 30.7442 194.359 35.2116V47.6933C194.359 48.7243 195.104 49.4607 196.148 49.4607C197.192 49.4607 197.938 48.7243 197.938 47.6933V34.7207C197.938 28.5841 194.856 24.6444 190.034 24.6444" fill="#0F1137"/>
<path d="M37.6066 31.3701C34.4375 31.3701 31.8773 33.9106 31.8773 37.028C31.8773 40.1454 34.4375 42.6859 37.6066 42.6859C39.7814 42.6859 41.658 41.4954 42.6398 39.7404V34.3034C41.6705 32.5483 39.7814 31.3578 37.6066 31.3578" fill="white"/>
<path d="M40.9497 13.0954C25.6883 13.0954 13.2853 25.3685 13.2853 40.4154C13.2853 42.3668 14.901 43.9623 16.877 43.9623C18.853 43.9623 20.4686 42.3668 20.4686 40.4154C20.4686 29.2714 29.6279 20.2016 40.9372 20.2016C42.9133 20.2016 44.5289 18.6061 44.5289 16.6546C44.5289 14.7032 42.9133 13.1077 40.9372 13.1077" fill="#0F1137"/>
<path d="M40.9124 7.09386C42.8884 7.09386 44.504 5.49836 44.504 3.54693C44.504 1.59551 42.8884 0 40.9124 0C18.3559 0 0 18.1274 0 40.4031C0 42.3545 1.61562 43.95 3.59164 43.95C5.56766 43.95 7.18328 42.3545 7.18328 40.4031C7.18328 22.0302 22.3079 7.09386 40.9124 7.09386Z" fill="#0F1137"/>
<path d="M144.262 58.8373C143.902 58.42 143.405 58.0887 142.783 57.8432C142.162 57.5855 141.466 57.4627 140.695 57.4627C139.527 57.4627 138.682 57.6714 138.16 58.1009C137.638 58.5305 137.365 59.1196 137.365 59.856C137.365 60.2487 137.439 60.5556 137.576 60.8133C137.713 61.0588 137.936 61.2797 138.235 61.4515C138.533 61.6233 138.918 61.7952 139.378 61.9179C139.838 62.0529 140.372 62.1879 141.006 62.3229C141.702 62.4702 142.323 62.6297 142.883 62.8015C143.429 62.9734 143.902 63.1943 144.299 63.4766C144.697 63.7466 144.995 64.078 145.194 64.4707C145.405 64.8634 145.505 65.3544 145.505 65.9312C145.505 66.508 145.393 67.0358 145.157 67.4776C144.921 67.9072 144.598 68.2754 144.188 68.5699C143.777 68.8645 143.28 69.0731 142.696 69.2081C142.124 69.3431 141.503 69.4168 140.82 69.4168C138.769 69.4168 137.029 68.7908 135.587 67.5512L136.209 66.5203C136.681 67.0112 137.327 67.4408 138.135 67.7844C138.943 68.1281 139.838 68.2999 140.832 68.2999C141.876 68.2999 142.684 68.1158 143.268 67.7476C143.852 67.3794 144.15 66.8149 144.15 66.0662C144.15 65.6612 144.063 65.3298 143.902 65.0598C143.74 64.7898 143.492 64.5566 143.156 64.348C142.833 64.1516 142.41 63.9798 141.913 63.8325C141.416 63.6852 140.844 63.5379 140.198 63.4029C139.515 63.2434 138.918 63.0838 138.396 62.912C137.887 62.7402 137.452 62.5315 137.104 62.2738C136.756 62.0161 136.495 61.7092 136.321 61.3533C136.147 60.9974 136.06 60.5556 136.06 60.0401C136.06 59.451 136.172 58.9232 136.395 58.4569C136.619 57.9905 136.942 57.61 137.352 57.2909C137.762 56.9718 138.247 56.7509 138.819 56.5791C139.39 56.4195 140.012 56.3336 140.695 56.3336C141.553 56.3336 142.323 56.4686 142.994 56.7264C143.678 56.9841 144.287 57.3523 144.834 57.8187L144.225 58.8373H144.262Z" fill="white"/>
<path d="M165.799 69.024V56.1495H167.067V67.9072H174.611V69.024H165.799Z" fill="white"/>
<path d="M181.483 57.745L178.799 64.1025H184.081L181.471 57.745H181.483ZM175.506 69.1345L180.961 56.26H182.005L187.461 69.1345H186.082L184.392 65.1089H178.538L176.873 69.1345H175.518H175.506Z" fill="white"/>
<path d="M189.611 63.2925H193.886C194.272 63.2925 194.607 63.2066 194.93 63.047C195.241 62.8875 195.502 62.6666 195.726 62.3843C195.949 62.102 196.123 61.7952 196.235 61.4392C196.359 61.0956 196.422 60.7151 196.422 60.3347C196.422 59.9542 196.347 59.5737 196.21 59.2178C196.074 58.8619 195.875 58.5551 195.639 58.2851C195.403 58.015 195.117 57.8064 194.794 57.6468C194.47 57.4873 194.135 57.4137 193.775 57.4137H189.611V63.2925ZM188.344 69.159V56.2845H193.837C194.396 56.2845 194.918 56.4073 195.403 56.6405C195.887 56.8736 196.285 57.1805 196.633 57.5609C196.981 57.9414 197.242 58.371 197.428 58.8619C197.615 59.3405 197.714 59.8315 197.714 60.3347C197.714 60.8379 197.64 61.2551 197.503 61.6847C197.366 62.1143 197.167 62.4947 196.906 62.8506C196.645 63.2066 196.347 63.4889 195.987 63.722C195.626 63.9552 195.229 64.1148 194.794 64.2007L198.012 69.1713H196.558L193.476 64.4216H189.624V69.1713H188.356L188.344 69.159Z" fill="white"/>
<path d="M155.857 57.8064C155.857 57.8064 155.745 57.8432 155.745 57.9046C155.745 57.966 155.783 58.015 155.845 58.015C155.907 58.015 155.957 57.9782 155.957 57.9169C155.957 57.8555 155.919 57.8064 155.857 57.8064ZM155.012 57.8064C155.012 57.8064 154.913 57.8555 154.913 57.9169C154.913 57.9782 154.962 58.015 155.025 58.015C155.087 58.015 155.124 57.966 155.124 57.9046C155.124 57.8555 155.074 57.8064 155.012 57.8064ZM154.167 57.9414C154.167 57.9414 154.08 58.015 154.092 58.0641C154.105 58.1132 154.167 58.15 154.217 58.1378C154.266 58.1255 154.304 58.0641 154.291 58.015C154.279 57.9537 154.217 57.9291 154.167 57.9414ZM153.372 58.2237C153.372 58.2237 153.297 58.3096 153.322 58.3587C153.347 58.4078 153.409 58.4323 153.459 58.4078C153.508 58.3832 153.533 58.3219 153.508 58.2728C153.484 58.2237 153.421 58.1991 153.372 58.2237ZM152.626 58.641C152.626 58.641 152.564 58.7392 152.601 58.7883C152.638 58.8373 152.701 58.8496 152.75 58.8128C152.8 58.776 152.812 58.7146 152.775 58.6655C152.738 58.6164 152.676 58.6042 152.626 58.641ZM151.98 59.1687C151.98 59.1687 151.942 59.2669 151.98 59.316C152.017 59.3528 152.092 59.3528 152.129 59.316C152.166 59.2792 152.166 59.2055 152.129 59.1687C152.092 59.1319 152.017 59.1319 151.98 59.1687ZM151.421 59.8069C151.421 59.8069 151.396 59.9174 151.445 59.9542C151.495 59.991 151.557 59.9787 151.595 59.9297C151.632 59.8806 151.619 59.8192 151.57 59.7824C151.52 59.7456 151.458 59.7578 151.421 59.8069ZM150.998 60.531C150.998 60.531 150.998 60.6415 151.048 60.666C151.097 60.6906 151.16 60.666 151.184 60.6169C151.209 60.5679 151.184 60.5065 151.135 60.4819C151.085 60.4574 151.023 60.4819 150.998 60.531ZM150.7 61.3165C150.7 61.3165 150.712 61.427 150.774 61.4392C150.824 61.4515 150.886 61.427 150.899 61.3656C150.911 61.3165 150.886 61.2551 150.824 61.2429C150.774 61.2306 150.712 61.2551 150.7 61.3165ZM150.538 62.1511C150.538 62.1511 150.575 62.2615 150.625 62.2615C150.687 62.2615 150.737 62.2247 150.737 62.1634C150.737 62.102 150.7 62.0529 150.638 62.0529C150.588 62.0529 150.526 62.0897 150.526 62.1511M150.538 62.9857C150.538 62.9857 150.588 63.0838 150.65 63.0838C150.712 63.0838 150.749 63.0347 150.749 62.9734C150.749 62.912 150.7 62.8752 150.638 62.8752C150.575 62.8752 150.538 62.9243 150.538 62.9857ZM150.675 63.8202C150.675 63.8202 150.749 63.9061 150.799 63.8939C150.849 63.8816 150.886 63.8202 150.874 63.7711C150.861 63.722 150.799 63.6852 150.749 63.6975C150.7 63.7098 150.662 63.7711 150.675 63.8202ZM150.961 64.6057C150.961 64.6057 151.048 64.6793 151.097 64.6548C151.147 64.6303 151.172 64.5689 151.147 64.5198C151.122 64.4707 151.06 64.4462 151.01 64.4707C150.961 64.4952 150.936 64.5566 150.961 64.6057ZM151.383 65.3298C151.383 65.3298 151.483 65.3912 151.532 65.3544C151.582 65.3175 151.595 65.2562 151.557 65.2071C151.52 65.158 151.458 65.1457 151.408 65.1825C151.358 65.2194 151.346 65.2807 151.383 65.3298ZM151.93 65.9803C151.93 65.9803 152.042 66.0171 152.079 65.9803C152.116 65.9435 152.116 65.8698 152.079 65.833C152.042 65.7962 151.967 65.7962 151.93 65.833C151.893 65.8698 151.893 65.9435 151.93 65.9803ZM152.576 66.5203C152.576 66.5203 152.688 66.5449 152.725 66.4958C152.763 66.4467 152.75 66.3853 152.701 66.3485C152.651 66.3117 152.589 66.3239 152.551 66.373C152.514 66.4221 152.527 66.4835 152.576 66.5203ZM153.31 66.9499C153.31 66.9499 153.421 66.9499 153.446 66.9008C153.471 66.8517 153.446 66.7903 153.397 66.7658C153.347 66.7412 153.285 66.7658 153.26 66.8149C153.235 66.864 153.26 66.9253 153.31 66.9499ZM154.105 67.2444C154.105 67.2444 154.217 67.2322 154.229 67.1708C154.242 67.1094 154.217 67.0603 154.155 67.0481C154.105 67.0358 154.043 67.0603 154.03 67.1217C154.018 67.1831 154.043 67.2322 154.105 67.2444ZM154.938 67.3917C154.938 67.3917 155.049 67.3549 155.049 67.2935C155.049 67.2322 155.012 67.1831 154.962 67.1831C154.9 67.1831 154.851 67.2199 154.851 67.269C154.851 67.3303 154.888 67.3794 154.938 67.3794M155.783 67.404C155.783 67.404 155.882 67.3549 155.882 67.2935C155.882 67.2322 155.832 67.1953 155.77 67.1953C155.708 67.1953 155.671 67.2444 155.671 67.3058C155.671 67.3672 155.721 67.404 155.783 67.404ZM156.628 67.2567C156.628 67.2567 156.715 67.1831 156.702 67.134C156.69 67.0849 156.628 67.0481 156.578 67.0603C156.528 67.0726 156.491 67.134 156.503 67.1831C156.516 67.2444 156.578 67.269 156.628 67.2567ZM157.423 66.9744C157.423 66.9744 157.498 66.8885 157.473 66.8394C157.448 66.7903 157.386 66.7658 157.336 66.7903C157.286 66.8149 157.262 66.8762 157.286 66.9253C157.311 66.9744 157.373 66.999 157.423 66.9744ZM158.169 66.5694C158.169 66.5694 158.231 66.4712 158.194 66.4221C158.156 66.373 158.094 66.3608 158.045 66.3976C157.995 66.4344 157.982 66.4958 158.02 66.5449C158.057 66.594 158.119 66.6062 158.169 66.5694ZM158.815 66.0294C158.815 66.0294 158.852 65.9312 158.815 65.8821C158.778 65.8453 158.716 65.8453 158.666 65.8821C158.629 65.9189 158.629 65.9803 158.666 66.0294C158.703 66.0662 158.765 66.0662 158.815 66.0294ZM159.374 65.3912C159.374 65.3912 159.399 65.2807 159.349 65.2439C159.3 65.2071 159.238 65.2194 159.2 65.2685C159.163 65.3175 159.175 65.3789 159.225 65.4157C159.275 65.4526 159.337 65.4403 159.374 65.3912ZM159.797 64.6671C159.797 64.6671 159.797 64.5566 159.747 64.5321C159.697 64.5075 159.635 64.5321 159.61 64.5812C159.586 64.6303 159.61 64.6916 159.66 64.7162C159.71 64.7407 159.772 64.7162 159.797 64.6671ZM160.095 63.8816C160.095 63.8816 160.083 63.7711 160.021 63.7589C159.971 63.7466 159.909 63.7711 159.896 63.8325C159.884 63.8816 159.909 63.943 159.971 63.9552C160.021 63.9675 160.083 63.943 160.095 63.8816ZM160.257 63.0593C160.257 63.0593 160.219 62.9488 160.17 62.9488C160.108 62.9488 160.058 62.9857 160.058 63.047C160.058 63.1084 160.095 63.1575 160.145 63.1575C160.207 63.1575 160.257 63.1207 160.257 63.0593ZM160.257 62.2124C160.257 62.2124 160.207 62.1143 160.145 62.1143C160.083 62.1143 160.045 62.1634 160.045 62.2247C160.045 62.2861 160.095 62.3229 160.157 62.3229C160.219 62.3229 160.257 62.2738 160.257 62.2124ZM160.12 61.3902C160.12 61.3902 160.045 61.3042 159.996 61.3165C159.946 61.3288 159.909 61.3902 159.921 61.4392C159.934 61.4883 159.996 61.5252 160.045 61.5129C160.095 61.5006 160.132 61.4392 160.12 61.3902ZM159.834 60.5924C159.834 60.5924 159.747 60.5188 159.697 60.5433C159.648 60.5679 159.623 60.6292 159.648 60.6783C159.673 60.7274 159.735 60.7519 159.784 60.7274C159.834 60.7029 159.859 60.6415 159.834 60.5924ZM159.412 59.8683C159.412 59.8683 159.312 59.8069 159.262 59.8437C159.213 59.8806 159.2 59.9419 159.238 59.991C159.275 60.0401 159.337 60.0524 159.387 60.0156C159.436 59.9787 159.449 59.9174 159.412 59.8683ZM158.865 59.2178C158.865 59.2178 158.753 59.181 158.716 59.2178C158.678 59.2546 158.678 59.3283 158.716 59.3651C158.753 59.4019 158.827 59.4019 158.865 59.3651C158.902 59.3283 158.902 59.2546 158.865 59.2178ZM158.219 58.6778C158.219 58.6778 158.107 58.6532 158.069 58.7023C158.032 58.7514 158.045 58.8128 158.094 58.8496C158.144 58.8864 158.206 58.8742 158.243 58.8251C158.281 58.776 158.268 58.7146 158.219 58.6778ZM157.485 58.2482C157.485 58.2482 157.373 58.2482 157.349 58.2973C157.324 58.3464 157.349 58.4078 157.398 58.4323C157.448 58.4569 157.51 58.4323 157.535 58.3832C157.56 58.3341 157.535 58.2728 157.485 58.2482ZM156.69 57.9537C156.69 57.9537 156.578 57.9659 156.566 58.0273C156.553 58.0887 156.578 58.1378 156.64 58.15C156.69 58.1623 156.752 58.1378 156.764 58.0764C156.777 58.015 156.752 57.966 156.69 57.9537ZM155.335 56.9105C155.223 56.9105 155.124 57.0086 155.124 57.1191C155.124 57.2296 155.223 57.3277 155.335 57.3277C155.447 57.3277 155.547 57.2296 155.547 57.1191C155.547 57.0086 155.447 56.9105 155.335 56.9105ZM154.341 56.9964C154.229 57.0209 154.155 57.1314 154.167 57.2418C154.192 57.3523 154.304 57.4259 154.416 57.4137C154.527 57.3891 154.602 57.2787 154.59 57.1682C154.565 57.0577 154.453 56.9841 154.341 56.9964ZM153.372 57.2664C153.26 57.3032 153.21 57.4259 153.247 57.5364C153.285 57.6469 153.409 57.6959 153.521 57.6591C153.633 57.6223 153.682 57.4996 153.645 57.3891C153.608 57.2787 153.484 57.2296 153.372 57.2664ZM152.464 57.6959C152.365 57.7573 152.328 57.88 152.39 57.9782C152.452 58.0764 152.576 58.1132 152.676 58.0519C152.775 57.9905 152.812 57.8678 152.75 57.7696C152.688 57.6714 152.564 57.6346 152.464 57.6959ZM151.644 58.2728C151.557 58.3464 151.545 58.4814 151.619 58.5673C151.694 58.6532 151.831 58.6655 151.918 58.5919C152.005 58.5182 152.017 58.3832 151.942 58.2973C151.868 58.2114 151.731 58.1991 151.644 58.2728ZM150.948 58.9846C150.874 59.0705 150.886 59.2055 150.973 59.2792C151.06 59.3528 151.197 59.3405 151.271 59.2546C151.346 59.1687 151.334 59.0337 151.247 58.9601C151.16 58.8864 151.023 58.8987 150.948 58.9846ZM150.377 59.8069C150.314 59.9051 150.352 60.0401 150.451 60.0892C150.551 60.1506 150.687 60.1137 150.737 60.0033C150.799 59.9051 150.762 59.7701 150.662 59.721C150.563 59.6596 150.426 59.6965 150.377 59.7946M149.954 60.7029C149.917 60.8133 149.966 60.936 150.078 60.9729C150.19 61.0097 150.314 60.9483 150.352 60.8501C150.389 60.7397 150.339 60.6169 150.227 60.5801C150.116 60.5433 149.991 60.6047 149.954 60.7029ZM149.705 61.6724C149.693 61.7829 149.768 61.8933 149.879 61.9179C149.991 61.9424 150.103 61.8565 150.128 61.7461C150.14 61.6356 150.066 61.5252 149.954 61.5006C149.842 61.4761 149.73 61.562 149.705 61.6724ZM149.631 62.6543C149.631 62.7647 149.73 62.8629 149.842 62.8629C149.954 62.8629 150.053 62.7647 150.053 62.6543C150.053 62.5438 149.954 62.4456 149.842 62.4456C149.718 62.4456 149.631 62.5438 149.631 62.6543ZM149.73 63.6484C149.755 63.7589 149.867 63.8325 149.979 63.8202C150.091 63.7957 150.165 63.6852 150.153 63.5748C150.128 63.4643 150.016 63.3907 149.904 63.4029C149.792 63.4275 149.718 63.5379 149.73 63.6484ZM149.991 64.6057C150.029 64.7162 150.153 64.7653 150.265 64.7284C150.377 64.6916 150.426 64.5689 150.389 64.4584C150.352 64.348 150.227 64.2989 150.116 64.3357C150.004 64.3725 149.954 64.4952 149.991 64.6057ZM150.426 65.5016C150.488 65.5998 150.613 65.6367 150.712 65.5753C150.812 65.5139 150.849 65.3912 150.787 65.293C150.725 65.1948 150.6 65.158 150.501 65.2194C150.401 65.2807 150.364 65.4035 150.426 65.5016ZM151.01 66.2994C151.085 66.3853 151.222 66.3976 151.309 66.3239C151.396 66.2503 151.408 66.1153 151.334 66.0294C151.259 65.9435 151.122 65.9312 151.035 66.0048C150.948 66.0785 150.936 66.2135 151.01 66.2994ZM151.731 66.999C151.818 67.0726 151.955 67.0603 152.029 66.9744C152.104 66.8885 152.092 66.7535 152.005 66.6799C151.918 66.6062 151.781 66.6185 151.706 66.7044C151.632 66.7903 151.644 66.9253 151.731 66.999ZM152.564 67.5635C152.663 67.6249 152.8 67.5881 152.85 67.4899C152.912 67.3917 152.875 67.2567 152.775 67.2076C152.676 67.1462 152.539 67.1831 152.489 67.2935C152.427 67.3917 152.464 67.5267 152.576 67.5758M153.484 67.9685C153.595 68.0054 153.72 67.944 153.757 67.8458C153.794 67.7354 153.745 67.6126 153.633 67.5758C153.521 67.539 153.397 67.6003 153.359 67.7108C153.322 67.8213 153.372 67.944 153.484 67.9808M154.453 68.214C154.565 68.2263 154.677 68.1526 154.701 68.0422C154.726 67.9317 154.639 67.8213 154.527 67.7967C154.416 67.7844 154.304 67.8581 154.279 67.9685C154.254 68.079 154.341 68.1895 154.453 68.214ZM155.46 68.2999C155.571 68.2999 155.671 68.2017 155.671 68.0913C155.671 67.9808 155.571 67.8826 155.46 67.8826C155.348 67.8826 155.248 67.9808 155.248 68.0913C155.248 68.2017 155.348 68.2999 155.46 68.2999ZM156.454 68.2017C156.566 68.1772 156.64 68.0667 156.628 67.9563C156.603 67.8458 156.491 67.7722 156.379 67.7844C156.267 67.809 156.193 67.9194 156.205 68.0299C156.23 68.1404 156.342 68.214 156.454 68.2017ZM157.423 67.9317C157.535 67.8949 157.585 67.7722 157.547 67.6617C157.51 67.5513 157.386 67.5022 157.274 67.539C157.162 67.5758 157.112 67.6985 157.15 67.809C157.187 67.9194 157.311 67.9685 157.423 67.9317ZM158.33 67.5022C158.43 67.4408 158.467 67.3181 158.405 67.2199C158.343 67.1217 158.219 67.0849 158.119 67.1462C158.02 67.2076 157.982 67.3303 158.045 67.4285C158.107 67.5267 158.231 67.5635 158.33 67.5022ZM159.151 66.9253C159.238 66.8517 159.25 66.7167 159.175 66.6308C159.101 66.5449 158.964 66.5326 158.877 66.6062C158.79 66.6799 158.778 66.8149 158.852 66.9008C158.927 66.9867 159.064 66.999 159.151 66.9253ZM159.847 66.2135C159.921 66.1276 159.909 65.9926 159.822 65.9189C159.735 65.8453 159.598 65.8576 159.523 65.9435C159.449 66.0294 159.461 66.1644 159.548 66.238C159.635 66.3117 159.772 66.2994 159.847 66.2135ZM160.418 65.4035C160.48 65.3053 160.443 65.1703 160.344 65.1212C160.244 65.0598 160.108 65.0966 160.058 65.1948C159.996 65.293 160.033 65.428 160.145 65.4771C160.244 65.5385 160.381 65.5016 160.431 65.4035M160.841 64.4952C160.878 64.3848 160.828 64.2621 160.717 64.2252C160.605 64.1884 160.48 64.2498 160.443 64.348C160.406 64.4584 160.468 64.5812 160.567 64.618C160.679 64.6548 160.804 64.5934 160.841 64.4952ZM161.089 63.5379C161.114 63.4275 161.027 63.317 160.915 63.2925C160.804 63.2679 160.692 63.3538 160.667 63.4643C160.642 63.5748 160.729 63.6852 160.841 63.7098C160.953 63.7343 161.064 63.6484 161.089 63.5379ZM161.164 62.5438C161.164 62.4334 161.064 62.3352 160.953 62.3352C160.841 62.3352 160.741 62.4334 160.741 62.5438C160.741 62.6543 160.841 62.7525 160.953 62.7525C161.064 62.7525 161.164 62.6543 161.164 62.5438ZM161.065 61.5497C161.04 61.4392 160.928 61.3656 160.816 61.3779C160.704 61.4024 160.63 61.5129 160.642 61.6233C160.667 61.7338 160.779 61.8074 160.891 61.7952C161.002 61.7706 161.077 61.6602 161.065 61.5497ZM160.791 60.6047C160.754 60.4942 160.63 60.4451 160.518 60.4819C160.406 60.5188 160.356 60.6415 160.393 60.7519C160.431 60.8624 160.555 60.9115 160.667 60.8747C160.779 60.8379 160.828 60.7151 160.791 60.6047ZM160.369 59.7087C160.306 59.6105 160.182 59.5737 160.083 59.6351C159.983 59.6965 159.946 59.8192 160.008 59.9174C160.07 60.0156 160.195 60.0524 160.294 59.991C160.393 59.9297 160.431 59.8069 160.369 59.7087ZM159.784 58.8987C159.71 58.8128 159.573 58.8005 159.486 58.8742C159.399 58.9478 159.387 59.0828 159.461 59.1687C159.536 59.2546 159.673 59.2669 159.76 59.1933C159.847 59.1196 159.859 58.9846 159.784 58.8987ZM159.064 58.1991C158.977 58.1255 158.84 58.1378 158.765 58.2237C158.691 58.3096 158.703 58.4446 158.79 58.5182C158.877 58.5919 159.014 58.5796 159.088 58.4937C159.163 58.4078 159.151 58.2728 159.064 58.1991ZM158.231 57.6346C158.132 57.5732 157.995 57.61 157.945 57.7082C157.883 57.8064 157.92 57.9414 158.032 57.9905C158.132 58.0519 158.268 58.015 158.318 57.9046C158.38 57.8064 158.343 57.6714 158.243 57.6223M157.311 57.2296C157.199 57.1927 157.075 57.2541 157.038 57.3523C157.001 57.4628 157.05 57.5855 157.162 57.6223C157.274 57.6591 157.398 57.5978 157.436 57.4996C157.473 57.3891 157.423 57.2664 157.311 57.2296ZM156.342 56.9841C156.23 56.9718 156.118 57.0455 156.093 57.1559C156.069 57.2664 156.156 57.3768 156.267 57.4014C156.379 57.4259 156.491 57.34 156.516 57.2296C156.528 57.1191 156.454 57.0086 156.342 56.9841ZM154.714 55.7813C154.527 55.7936 154.391 55.9654 154.416 56.1373C154.44 56.3091 154.602 56.4564 154.776 56.4318C154.962 56.4073 155.099 56.2477 155.074 56.0759C155.062 55.8918 154.888 55.7568 154.714 55.7813ZM153.521 56.0023C153.347 56.0513 153.235 56.2354 153.285 56.4073C153.334 56.5791 153.521 56.6895 153.695 56.6405C153.869 56.5914 153.981 56.4073 153.931 56.2354C153.881 56.0636 153.695 55.9532 153.521 56.0023ZM152.39 56.4195C152.216 56.5055 152.154 56.7018 152.228 56.8614C152.303 57.0209 152.514 57.0946 152.676 57.0209C152.837 56.9473 152.912 56.7386 152.837 56.5791C152.763 56.4195 152.551 56.3459 152.39 56.4195ZM151.346 57.0332C151.197 57.1437 151.16 57.3523 151.271 57.4996C151.383 57.6468 151.595 57.6837 151.744 57.5732C151.893 57.4628 151.93 57.2541 151.818 57.1068C151.706 56.9596 151.495 56.9227 151.346 57.0332ZM150.426 57.8064C150.302 57.9414 150.302 58.15 150.426 58.2728C150.563 58.3955 150.774 58.3955 150.899 58.2728C151.023 58.1378 151.023 57.9291 150.899 57.8064C150.762 57.6837 150.551 57.6837 150.426 57.8064ZM149.668 58.7392C149.569 58.8864 149.606 59.0951 149.755 59.1933C149.904 59.2914 150.116 59.2546 150.215 59.1073C150.314 58.9601 150.277 58.7514 150.128 58.641C149.979 58.5428 149.768 58.5796 149.656 58.7269M149.072 59.7701C148.997 59.9419 149.072 60.126 149.233 60.2119C149.407 60.2856 149.594 60.2119 149.681 60.0524C149.755 59.8806 149.681 59.6965 149.519 59.6105C149.345 59.5369 149.146 59.6105 149.072 59.7824M148.674 60.8992C148.624 61.071 148.736 61.2551 148.91 61.3042C149.084 61.3533 149.271 61.2429 149.32 61.071C149.37 60.8992 149.258 60.7151 149.084 60.666C148.898 60.6169 148.724 60.7274 148.674 60.9115M148.475 62.0774C148.463 62.2615 148.599 62.4211 148.786 62.4334C148.972 62.4456 149.134 62.3106 149.146 62.1265C149.159 61.9424 149.022 61.7829 148.836 61.7706C148.649 61.7583 148.488 61.8934 148.475 62.0774ZM148.488 63.2802C148.5 63.4643 148.674 63.5993 148.848 63.5748C149.034 63.5502 149.171 63.3907 149.146 63.2188C149.134 63.0347 148.96 62.8997 148.786 62.9243C148.599 62.9488 148.463 63.1084 148.488 63.2802ZM148.711 64.4462C148.761 64.618 148.947 64.7284 149.121 64.6793C149.295 64.6303 149.407 64.4462 149.358 64.2743C149.308 64.1025 149.121 63.9921 148.947 64.0411C148.773 64.0902 148.662 64.2743 148.711 64.4462ZM149.134 65.5753C149.221 65.7348 149.42 65.8085 149.581 65.7348C149.743 65.6612 149.817 65.4648 149.743 65.293C149.656 65.1335 149.457 65.0598 149.295 65.1335C149.134 65.2071 149.059 65.4035 149.134 65.5753ZM149.755 66.594C149.867 66.7412 150.066 66.778 150.227 66.6676C150.377 66.5571 150.414 66.3485 150.302 66.2012C150.19 66.0539 149.979 66.0171 149.83 66.1276C149.681 66.238 149.643 66.4467 149.755 66.594ZM150.551 67.5022C150.687 67.6249 150.899 67.6249 151.023 67.5022C151.147 67.3672 151.147 67.1585 151.023 67.0358C150.899 66.9131 150.675 66.9131 150.551 67.0358C150.426 67.1708 150.426 67.3794 150.551 67.5022ZM151.483 68.2631C151.632 68.3613 151.843 68.3245 151.942 68.1772C152.042 68.0299 152.005 67.8213 151.855 67.7231C151.706 67.6249 151.495 67.6617 151.383 67.809C151.271 67.9563 151.321 68.1649 151.47 68.2754M152.539 68.8522C152.701 68.9258 152.899 68.8522 152.986 68.6804C153.061 68.5208 152.986 68.3245 152.825 68.2385C152.651 68.1649 152.452 68.2386 152.377 68.3981C152.303 68.5699 152.377 68.754 152.551 68.8399M153.682 69.2449C153.869 69.294 154.043 69.1836 154.092 69.0118C154.142 68.8399 154.03 68.6558 153.856 68.6067C153.682 68.5577 153.496 68.6681 153.446 68.8399C153.397 69.024 153.508 69.1959 153.682 69.2449ZM154.875 69.4413C155.062 69.4536 155.223 69.3186 155.236 69.1345C155.248 68.9504 155.112 68.7908 154.925 68.7786C154.739 68.7663 154.577 68.9013 154.565 69.0854C154.552 69.2695 154.689 69.429 154.875 69.4413ZM156.081 69.429C156.267 69.4168 156.404 69.2449 156.379 69.0731C156.367 68.889 156.193 68.754 156.019 68.7786C155.832 68.8031 155.696 68.9627 155.721 69.1345C155.733 69.3186 155.907 69.4536 156.081 69.429ZM157.274 69.1959C157.448 69.1468 157.56 68.9627 157.51 68.7908C157.46 68.619 157.274 68.5086 157.1 68.5577C156.926 68.6067 156.814 68.7908 156.864 68.9627C156.914 69.1345 157.1 69.2449 157.274 69.1959ZM158.405 68.7786C158.567 68.6927 158.641 68.4963 158.567 68.3367C158.492 68.1772 158.281 68.1035 158.119 68.1772C157.958 68.2508 157.883 68.4472 157.958 68.619C158.045 68.7786 158.243 68.8522 158.405 68.7786ZM159.449 68.1649C159.598 68.0545 159.635 67.8458 159.523 67.6985C159.412 67.5513 159.2 67.5144 159.051 67.6249C158.902 67.7354 158.865 67.944 158.977 68.0913C159.088 68.2386 159.3 68.2754 159.449 68.1649ZM160.369 67.3917C160.493 67.2567 160.493 67.0481 160.369 66.9253C160.232 66.8026 160.021 66.8026 159.896 66.9253C159.772 67.0603 159.772 67.269 159.896 67.3917C160.033 67.5144 160.244 67.5144 160.369 67.3917ZM161.127 66.4712C161.226 66.3239 161.189 66.1153 161.04 66.0171C160.891 65.9189 160.679 65.9558 160.567 66.103C160.468 66.2503 160.505 66.459 160.654 66.5694C160.804 66.6676 161.015 66.6308 161.127 66.4835M161.723 65.428C161.798 65.2562 161.723 65.0721 161.562 64.9862C161.388 64.9125 161.189 64.9862 161.114 65.1457C161.04 65.3176 161.114 65.5139 161.288 65.5876C161.462 65.6612 161.649 65.5876 161.736 65.4157M162.121 64.2989C162.171 64.1271 162.059 63.943 161.885 63.8939C161.698 63.8448 161.524 63.9552 161.475 64.1271C161.425 64.2989 161.537 64.483 161.711 64.5321C161.885 64.5812 162.071 64.4707 162.121 64.2866M162.32 63.1207C162.332 62.9366 162.195 62.777 162.009 62.7647C161.823 62.7525 161.661 62.8875 161.649 63.0716C161.636 63.2557 161.773 63.4152 161.959 63.4275C162.146 63.4398 162.307 63.3048 162.32 63.1207ZM162.307 61.9179C162.295 61.7338 162.121 61.5988 161.947 61.6233C161.76 61.6479 161.624 61.8074 161.649 61.9793C161.673 62.1634 161.835 62.2984 162.021 62.2738C162.208 62.2493 162.345 62.0897 162.32 61.9179M162.084 60.7519C162.034 60.5801 161.847 60.4697 161.673 60.5188C161.499 60.5679 161.388 60.7519 161.437 60.9238C161.487 61.0956 161.673 61.2061 161.847 61.157C162.021 61.1079 162.133 60.9238 162.084 60.7519ZM161.661 59.6351C161.586 59.4755 161.375 59.4019 161.214 59.4755C161.052 59.5492 160.978 59.7456 161.052 59.9174C161.127 60.0769 161.338 60.1506 161.499 60.0769C161.673 60.0033 161.736 59.8069 161.661 59.6351ZM161.04 58.6042C160.928 58.4569 160.717 58.4201 160.567 58.5305C160.418 58.641 160.381 58.8496 160.493 58.9969C160.605 59.1442 160.816 59.181 160.965 59.0705C161.114 58.9601 161.152 58.7514 161.04 58.6042ZM160.244 57.6959C160.108 57.5732 159.896 57.5732 159.772 57.6959C159.648 57.8309 159.648 58.0396 159.772 58.1623C159.909 58.2851 160.12 58.2851 160.244 58.1623C160.369 58.0273 160.369 57.8187 160.244 57.6959ZM159.312 56.935C159.163 56.8368 158.952 56.8736 158.852 57.0209C158.753 57.1682 158.79 57.3768 158.939 57.475C159.088 57.5732 159.3 57.5364 159.412 57.3891C159.523 57.2418 159.474 57.0332 159.325 56.9227M158.256 56.3582C158.094 56.2845 157.895 56.3582 157.808 56.53C157.734 56.6895 157.808 56.8859 157.97 56.9718C158.144 57.0455 158.33 56.9718 158.417 56.8123C158.492 56.6405 158.417 56.4564 158.256 56.3704M157.112 55.9532C156.938 55.9041 156.752 56.0145 156.702 56.1863C156.653 56.3582 156.764 56.5423 156.938 56.5914C157.112 56.6405 157.299 56.53 157.349 56.3582C157.398 56.1863 157.286 56.0023 157.1 55.9532M155.919 55.7691C155.733 55.7568 155.571 55.8918 155.559 56.0759C155.547 56.26 155.683 56.4195 155.87 56.4318C156.056 56.4441 156.218 56.3091 156.23 56.125C156.243 55.9409 156.106 55.7813 155.919 55.7691ZM154.515 54.7381C154.565 55.0081 154.378 55.2781 154.105 55.3272C153.832 55.3763 153.558 55.1922 153.508 54.9222C153.459 54.6522 153.645 54.3822 153.919 54.3331C154.192 54.284 154.465 54.4681 154.515 54.7381ZM153.148 55.0081C153.247 55.2659 153.111 55.5604 152.837 55.6586C152.576 55.7568 152.278 55.6218 152.179 55.3518C152.079 55.094 152.216 54.7995 152.489 54.7013C152.75 54.6031 153.049 54.7381 153.148 55.0081ZM151.843 55.5113C151.98 55.7568 151.905 56.0636 151.657 56.1986C151.408 56.3336 151.097 56.26 150.961 56.0145C150.824 55.7691 150.899 55.4622 151.147 55.3272C151.396 55.1922 151.706 55.2659 151.843 55.5113ZM150.65 56.2354C150.836 56.4441 150.799 56.7632 150.588 56.9473C150.377 57.1314 150.053 57.0946 149.867 56.8859C149.681 56.6773 149.718 56.3582 149.929 56.1741C150.14 55.99 150.464 56.0268 150.65 56.2354ZM149.606 57.1437C149.83 57.3277 149.855 57.6468 149.668 57.8555C149.482 58.0641 149.159 58.101 148.947 57.9169C148.736 57.7328 148.699 57.4137 148.885 57.205C149.072 56.9964 149.395 56.9596 149.606 57.1437ZM148.736 58.2237C148.985 58.3587 149.059 58.6778 148.923 58.911C148.786 59.1564 148.463 59.2424 148.227 59.0951C147.978 58.9601 147.903 58.641 148.04 58.4078C148.177 58.1623 148.5 58.0887 148.736 58.2237ZM148.065 59.4264C148.326 59.5246 148.463 59.8069 148.376 60.0769C148.276 60.3347 147.99 60.4697 147.717 60.3838C147.456 60.2856 147.319 60.0033 147.406 59.7333C147.506 59.4755 147.792 59.3405 148.065 59.4264ZM147.618 60.7274C147.891 60.7765 148.077 61.0342 148.028 61.3165C147.978 61.5865 147.717 61.7706 147.431 61.7215C147.158 61.6724 146.971 61.4147 147.021 61.1324C147.071 60.8624 147.332 60.6783 147.618 60.7274ZM147.406 62.0897C147.692 62.0897 147.916 62.3106 147.916 62.5929C147.916 62.8752 147.68 63.0961 147.406 63.0961C147.133 63.0961 146.897 62.8752 146.897 62.5929C146.897 62.3106 147.12 62.0897 147.406 62.0897ZM147.444 63.4766C147.717 63.4275 147.99 63.6116 148.04 63.8816C148.09 64.1516 147.903 64.4216 147.63 64.4707C147.357 64.5198 147.083 64.3357 147.033 64.0657C146.984 63.7957 147.17 63.5257 147.444 63.4766ZM147.717 64.8266C147.978 64.7284 148.276 64.8634 148.376 65.1335C148.475 65.3912 148.338 65.6857 148.065 65.7839C147.804 65.8821 147.506 65.7471 147.406 65.4771C147.307 65.2194 147.444 64.9248 147.717 64.8266ZM148.227 66.103C148.475 65.968 148.786 66.0417 148.923 66.2871C149.059 66.5326 148.985 66.8394 148.736 66.9744C148.488 67.1094 148.177 67.0358 148.04 66.7903C147.903 66.5449 147.978 66.238 148.227 66.103ZM148.947 67.2812C149.159 67.0972 149.482 67.134 149.668 67.3426C149.855 67.5513 149.817 67.8704 149.606 68.0545C149.395 68.2386 149.072 68.2017 148.885 67.9931C148.699 67.7844 148.736 67.4653 148.947 67.2812ZM149.867 68.3245C150.053 68.1158 150.377 68.079 150.588 68.2631C150.799 68.4472 150.836 68.7663 150.65 68.9749C150.464 69.1836 150.14 69.2204 149.929 69.0363C149.705 68.8522 149.681 68.5331 149.867 68.3245ZM150.961 69.1836C151.097 68.9381 151.408 68.8645 151.657 68.9995C151.905 69.1345 151.98 69.4536 151.843 69.6868C151.706 69.9322 151.383 70.0059 151.147 69.8709C150.899 69.7359 150.824 69.429 150.961 69.1836ZM152.179 69.8463C152.278 69.5886 152.564 69.4536 152.837 69.5395C153.098 69.6377 153.235 69.92 153.148 70.19C153.049 70.4477 152.763 70.5827 152.489 70.4968C152.228 70.3986 152.092 70.1163 152.179 69.8463ZM153.508 70.2882C153.558 70.0182 153.819 69.8341 154.105 69.8831C154.378 69.9322 154.565 70.19 154.515 70.4723C154.465 70.7423 154.204 70.9264 153.919 70.8773C153.645 70.8282 153.459 70.5704 153.508 70.2882ZM154.888 70.4845C154.888 70.2023 155.112 69.9813 155.397 69.9813C155.683 69.9813 155.907 70.2023 155.907 70.4845C155.907 70.7668 155.683 70.9877 155.397 70.9877C155.112 70.9877 154.888 70.7545 154.888 70.4845ZM156.28 70.46C156.23 70.19 156.417 69.92 156.69 69.8709C156.963 69.8218 157.237 70.0059 157.286 70.2759C157.336 70.5459 157.15 70.8159 156.876 70.865C156.603 70.9141 156.33 70.73 156.28 70.46ZM157.647 70.19C157.547 69.9322 157.684 69.6377 157.958 69.5395C158.219 69.4413 158.517 69.5763 158.616 69.8463C158.716 70.1041 158.579 70.3986 158.306 70.4968C158.045 70.595 157.746 70.46 157.647 70.19ZM158.952 69.6868C158.815 69.4413 158.89 69.1345 159.138 68.9995C159.387 68.8645 159.697 68.9381 159.834 69.1836C159.971 69.429 159.896 69.7359 159.648 69.8709C159.399 70.0059 159.088 69.9322 158.952 69.6868ZM160.145 68.9749C159.958 68.7663 159.996 68.4472 160.207 68.2631C160.418 68.079 160.741 68.1158 160.928 68.3245C161.114 68.5331 161.077 68.8522 160.866 69.0363C160.654 69.2204 160.331 69.1836 160.145 68.9749ZM161.189 68.0545C160.978 67.8704 160.94 67.5513 161.127 67.3426C161.313 67.134 161.636 67.0972 161.847 67.2812C162.071 67.4653 162.096 67.7844 161.91 67.9931C161.723 68.2017 161.4 68.2386 161.189 68.0545ZM162.059 66.9867C161.81 66.8517 161.736 66.5326 161.872 66.2994C162.009 66.0539 162.332 65.9803 162.568 66.1153C162.817 66.2503 162.904 66.5694 162.755 66.8026C162.618 67.0481 162.307 67.1217 162.059 66.9867ZM162.73 65.7717C162.469 65.6735 162.332 65.3912 162.419 65.1212C162.519 64.8634 162.804 64.7284 163.078 64.8144C163.339 64.9125 163.476 65.1948 163.389 65.4648C163.289 65.7226 163.003 65.8576 162.73 65.7717ZM163.177 64.4707C162.904 64.4216 162.717 64.1639 162.767 63.8816C162.817 63.6116 163.078 63.4275 163.364 63.4766C163.637 63.5257 163.823 63.7834 163.774 64.0657C163.724 64.3357 163.463 64.5198 163.177 64.4707ZM163.389 63.1084C163.103 63.1084 162.879 62.8875 162.879 62.6052C162.879 62.3229 163.103 62.102 163.389 62.102C163.674 62.102 163.898 62.3229 163.898 62.6052C163.898 62.8875 163.674 63.1084 163.389 63.1084ZM163.351 61.7338C163.078 61.7829 162.804 61.5988 162.755 61.3288C162.705 61.0588 162.891 60.7888 163.165 60.7397C163.438 60.6906 163.712 60.8747 163.761 61.1447C163.811 61.4147 163.625 61.6847 163.351 61.7338ZM163.078 60.3715C162.817 60.4697 162.519 60.3347 162.419 60.0647C162.32 59.8069 162.456 59.5124 162.73 59.4142C162.991 59.316 163.289 59.451 163.389 59.721C163.488 59.9787 163.351 60.2733 163.078 60.3715ZM162.568 59.0951C162.32 59.2301 162.009 59.1564 161.872 58.911C161.736 58.6655 161.81 58.3587 162.059 58.2237C162.307 58.0887 162.618 58.1623 162.755 58.4078C162.891 58.6532 162.817 58.9601 162.568 59.0951ZM161.847 57.9169C161.636 58.101 161.313 58.0641 161.127 57.8555C160.94 57.6468 160.978 57.3277 161.189 57.1437C161.4 56.9596 161.723 56.9964 161.91 57.205C162.096 57.4137 162.059 57.7328 161.847 57.9169ZM160.928 56.8859C160.741 57.0946 160.418 57.1314 160.207 56.9473C159.996 56.7632 159.958 56.4564 160.145 56.2354C160.331 56.0268 160.654 55.99 160.866 56.1741C161.077 56.3582 161.114 56.665 160.928 56.8859ZM159.834 56.0145C159.697 56.26 159.387 56.3336 159.138 56.1986C158.89 56.0636 158.815 55.7445 158.952 55.5113C159.088 55.2659 159.412 55.1922 159.648 55.3272C159.896 55.4622 159.971 55.7691 159.834 56.0145ZM158.616 55.364C158.517 55.6218 158.231 55.7568 157.958 55.6709C157.697 55.5727 157.56 55.2904 157.647 55.0204C157.746 54.7627 158.032 54.6277 158.306 54.7136C158.567 54.8118 158.703 55.094 158.616 55.364ZM157.286 54.9222C157.237 55.1922 156.976 55.3763 156.69 55.3272C156.417 55.2781 156.23 55.0204 156.28 54.7381C156.33 54.4681 156.59 54.284 156.876 54.3331C157.15 54.3822 157.336 54.6399 157.286 54.9222ZM155.907 54.7136C155.907 54.9959 155.683 55.2168 155.397 55.2168C155.112 55.2168 154.888 54.9959 154.888 54.7136C154.888 54.4313 155.112 54.2104 155.397 54.2104C155.683 54.2104 155.907 54.4313 155.907 54.7136Z" fill="white"/>
</g>
<defs>
<clipPath id="clip0_16_839">
<rect width="198" height="71" fill="white"/>
</clipPath>
</defs>
</svg>
