<svg width="104" height="37" viewBox="0 0 104 37" fill="none" xmlns="http://www.w3.org/2000/svg">
<g clip-path="url(#clip0_20_508)">
<path d="M25.0141 12.9004C24.4919 12.9004 24.0741 13.3097 24.0741 13.8214V14.3587C23.108 13.5016 21.933 13.0091 20.5622 12.8812V14.6913C22.0505 14.8064 23.2255 15.4588 24.0741 16.6356V22.0657C23.1342 23.396 21.8025 24.0612 20.1053 24.0612C18.7214 24.0612 17.5464 23.6263 16.6325 22.7308C15.9797 22.0913 15.5685 21.3301 15.3988 20.4539H13.4927C13.682 21.8354 14.2695 23.0123 15.2486 24.0164C16.4759 25.27 18.0164 25.884 19.8768 25.884C21.5218 25.884 22.9318 25.3723 24.0807 24.349V24.8607C24.0807 25.3723 24.4985 25.7817 25.0207 25.7817C25.5429 25.7817 25.9607 25.3723 25.9607 24.8607V13.8278C25.9607 13.3161 25.5429 12.9068 25.0207 12.9068" fill="white"/>
<path d="M30.5303 6.26794C30.0081 6.26794 29.5903 6.67728 29.5903 7.18895V24.8543C29.5903 25.366 30.0081 25.7753 30.5303 25.7753C31.0525 25.7753 31.4703 25.366 31.4703 24.8543V7.18895C31.4703 6.67728 31.0525 6.26794 30.5303 6.26794Z" fill="white"/>
<path d="M42.7569 14.0261C42.7569 13.4889 42.3652 13.1051 41.8169 13.1051H38.6836V11.4422C38.6836 9.26759 39.8325 7.98842 41.6864 7.98842C42.1302 7.98842 42.5741 8.06517 42.9658 8.24425C43.6186 8.52567 44.1147 8.321 44.3236 7.88609C44.5586 7.47675 44.3497 6.88833 43.723 6.58133C43.0963 6.29991 42.4175 6.172 41.6602 6.172C38.7358 6.172 36.8036 8.24425 36.8036 11.4486V13.1115H35.3936C34.8453 13.1115 34.4536 13.4952 34.4536 14.0325C34.4536 14.5697 34.8453 14.9279 35.3936 14.9279H36.8036V24.8607C36.8036 25.3723 37.2214 25.7817 37.7436 25.7817C38.2658 25.7817 38.6836 25.3723 38.6836 24.8607V14.9279H41.8169C42.3652 14.9279 42.7569 14.5442 42.7569 14.0325" fill="white"/>
<path d="M52.6855 22.0657C51.7455 23.396 50.4139 24.0612 48.7167 24.0612C47.3328 24.0612 46.1578 23.6263 45.2439 22.7308C44.33 21.8354 43.8861 20.7097 43.9122 19.3538C43.8861 17.9979 44.33 16.8978 45.2439 16.0024C46.1578 15.107 47.3067 14.6721 48.6905 14.6721C50.4139 14.6721 51.7455 15.3372 52.6855 16.642V22.0721V22.0657ZM53.6255 12.9004C53.1033 12.9004 52.6855 13.3097 52.6855 13.8214V14.3587C51.5628 13.3609 50.1528 12.8492 48.4817 12.8492C46.6278 12.8492 45.0611 13.4632 43.8274 14.7168C42.6002 15.9448 41.9996 17.4798 42.0257 19.3474C41.9996 21.215 42.6263 22.75 43.8535 24.01C45.0807 25.2636 46.6212 25.8776 48.4817 25.8776C50.1266 25.8776 51.5366 25.3659 52.6855 24.3426V24.8543C52.6855 25.3659 53.1033 25.7753 53.6255 25.7753C54.1477 25.7753 54.5655 25.3659 54.5655 24.8543V13.8214C54.5655 13.3097 54.1477 12.9004 53.6255 12.9004Z" fill="white"/>
<path d="M67.1376 22.7308C66.2237 23.6263 65.101 24.0612 63.7693 24.0612C62.4377 24.0612 61.2627 23.6263 60.3488 22.7308C59.4349 21.8354 58.991 20.6842 58.991 19.3283C58.991 17.9723 59.4349 16.8978 60.3488 16.0024C61.2627 15.107 62.4115 14.6721 63.7954 14.6721C65.101 14.6721 66.2237 15.107 67.1637 16.0024C67.3465 16.1815 67.5554 16.2582 67.8165 16.2582C68.5998 16.2582 69.0437 15.2605 68.4432 14.6721C67.1637 13.4697 65.6232 12.8557 63.7693 12.8557C61.9154 12.8557 60.2966 13.4697 59.0106 14.7232C57.7312 15.9768 57.1045 17.5118 57.1045 19.3538C57.1045 21.1958 57.7312 22.7564 58.9845 24.01C60.2639 25.2636 61.8567 25.8776 63.7693 25.8776C65.6819 25.8776 67.1899 25.2636 68.4432 24.0356C68.626 23.8821 68.7304 23.6518 68.7304 23.3704C68.7304 22.6029 67.7121 22.168 67.1376 22.7308Z" fill="white"/>
<path d="M80.3828 22.7052C79.4689 23.6007 78.3461 24.0356 76.9622 24.0356C75.5784 24.0356 74.4295 23.6007 73.5156 22.7052C72.6017 21.8098 72.1578 20.7097 72.1578 19.3538C72.1578 17.9979 72.6017 16.9234 73.5156 16.028C74.4295 15.1326 75.5784 14.6721 76.9622 14.6721C78.3461 14.6721 79.4689 15.1326 80.3828 16.028C81.2967 16.9234 81.7667 18.0235 81.7667 19.3538C81.7667 20.6842 81.2967 21.8098 80.3828 22.7052ZM76.9622 12.8492C75.0561 12.8492 73.4634 13.4632 72.1839 14.7168C70.9045 15.9448 70.2778 17.4798 70.2778 19.3474C70.2778 21.215 70.9045 22.75 72.1839 24.01C73.4634 25.2636 75.0561 25.8776 76.9622 25.8776C78.8683 25.8776 80.4611 25.2636 81.7405 24.0356C83.02 22.782 83.6466 21.2214 83.6466 19.3474C83.6466 17.4734 83.02 15.9448 81.7405 14.7168C80.4611 13.4632 78.8683 12.8492 76.9622 12.8492Z" fill="white"/>
<path d="M99.8223 12.8493C97.9162 12.8493 96.4801 13.668 95.5335 15.3309C94.8285 13.668 93.6274 12.8493 91.9041 12.8493C90.1808 12.8493 88.9797 13.5145 88.0919 14.8704V13.8215C88.0919 13.3098 87.6741 12.9005 87.1519 12.9005C86.6036 12.9005 86.2119 13.3098 86.2119 13.8215V24.8543C86.2119 25.366 86.6036 25.7753 87.1519 25.7753C87.7002 25.7753 88.0919 25.366 88.0919 24.8543V19.6033C88.0919 16.5589 89.3191 14.6913 91.6169 14.6913C93.2097 14.6913 94.1496 16.0216 94.1496 18.3497V24.8543C94.1496 25.3916 94.5413 25.7753 95.0896 25.7753C95.638 25.7753 96.0296 25.3916 96.0296 24.8543V19.6033C96.0296 16.5589 97.2568 14.6913 99.5546 14.6913C101.147 14.6913 102.087 16.0216 102.087 18.3497V24.8543C102.087 25.3916 102.479 25.7753 103.027 25.7753C103.576 25.7753 103.967 25.3916 103.967 24.8543V18.0939C103.967 14.896 102.348 12.8429 99.8157 12.8429" fill="white"/>
<path d="M19.7529 16.3478C18.0884 16.3478 16.7437 17.6718 16.7437 19.2963C16.7437 20.9209 18.0884 22.2448 19.7529 22.2448C20.8953 22.2448 21.881 21.6244 22.3967 20.7098V17.8764C21.8875 16.9618 20.8953 16.3414 19.7529 16.3414" fill="#F7F7F7"/>
<path d="M21.5088 6.8244C13.4927 6.8244 6.97803 13.2203 6.97803 21.0616C6.97803 22.0785 7.82663 22.91 8.86455 22.91C9.90246 22.91 10.7511 22.0785 10.7511 21.0616C10.7511 15.2541 15.562 10.5276 21.5023 10.5276C22.5402 10.5276 23.3888 9.69614 23.3888 8.6792C23.3888 7.66226 22.5402 6.8308 21.5023 6.8308" fill="white"/>
<path d="M21.4893 3.6968C22.5272 3.6968 23.3758 2.86534 23.3758 1.8484C23.3758 0.831461 22.5272 0 21.4893 0C9.64147 0 0 9.44667 0 21.0551C0 22.0721 0.848607 22.9035 1.88652 22.9035C2.92443 22.9035 3.77304 22.0721 3.77304 21.0551C3.77304 11.4806 11.7173 3.6968 21.4893 3.6968Z" fill="white"/>
<path d="M75.7741 30.6617C75.5848 30.4442 75.3237 30.2715 74.9973 30.1436C74.6709 30.0093 74.3054 29.9454 73.9007 29.9454C73.2871 29.9454 72.8432 30.0541 72.569 30.2779C72.2949 30.5018 72.1512 30.8088 72.1512 31.1925C72.1512 31.3972 72.1904 31.5571 72.2622 31.6914C72.334 31.8193 72.4515 31.9345 72.6082 32.024C72.7649 32.1135 72.9672 32.2031 73.2087 32.267C73.4503 32.3374 73.731 32.4078 74.0639 32.4781C74.4294 32.5549 74.7558 32.638 75.0496 32.7275C75.3368 32.8171 75.5848 32.9322 75.7937 33.0793C76.0026 33.22 76.1593 33.3927 76.2637 33.5974C76.3747 33.802 76.4269 34.0579 76.4269 34.3585C76.4269 34.6591 76.3682 34.9341 76.2441 35.1644C76.1201 35.3882 75.9504 35.5801 75.735 35.7336C75.5196 35.8871 75.2584 35.9958 74.9516 36.0662C74.6514 36.1365 74.325 36.1749 73.966 36.1749C72.8889 36.1749 71.975 35.8487 71.2178 35.2027L71.5442 34.6655C71.7922 34.9213 72.1317 35.1452 72.556 35.3243C72.9803 35.5033 73.4503 35.5929 73.9725 35.5929C74.5208 35.5929 74.9451 35.497 75.2519 35.3051C75.5587 35.1132 75.7154 34.819 75.7154 34.4288C75.7154 34.2178 75.6697 34.0451 75.5848 33.9044C75.5 33.7637 75.3694 33.6422 75.1932 33.5334C75.0235 33.4311 74.8015 33.3415 74.5404 33.2648C74.2793 33.188 73.979 33.1113 73.6396 33.0409C73.2805 32.9578 72.9672 32.8747 72.693 32.7851C72.4254 32.6956 72.1969 32.5868 72.0142 32.4525C71.8314 32.3182 71.6943 32.1583 71.6029 31.9728C71.5115 31.7874 71.4658 31.5571 71.4658 31.2885C71.4658 30.9815 71.5246 30.7065 71.6421 30.4634C71.7596 30.2204 71.9293 30.0221 72.1447 29.8558C72.3601 29.6895 72.6147 29.5744 72.915 29.4848C73.2153 29.4017 73.5417 29.3569 73.9007 29.3569C74.3511 29.3569 74.7558 29.4273 75.1083 29.5616C75.4673 29.6959 75.7872 29.8878 76.0744 30.1308L75.7546 30.6617H75.7741Z" fill="#F7F7F7"/>
<path d="M87.0864 35.9703V29.261H87.7522V35.3883H91.7146V35.9703H87.0864Z" fill="#F7F7F7"/>
<path d="M95.3244 30.0925L93.9144 33.4056H96.6887L95.3179 30.0925H95.3244ZM92.1846 36.0279L95.0502 29.3186H95.5986L98.4643 36.0279H97.7397L96.8519 33.93H93.7773L92.9026 36.0279H92.1911H92.1846Z" fill="#F7F7F7"/>
<path d="M99.5936 32.9834H101.839C102.041 32.9834 102.218 32.9386 102.387 32.8555C102.551 32.7723 102.688 32.6572 102.805 32.5101C102.923 32.363 103.014 32.2031 103.073 32.0176C103.138 31.8385 103.171 31.6403 103.171 31.442C103.171 31.2437 103.132 31.0454 103.06 30.86C102.988 30.6745 102.884 30.5146 102.76 30.3739C102.635 30.2332 102.485 30.1244 102.316 30.0413C102.146 29.9582 101.97 29.9198 101.78 29.9198H99.5936V32.9834ZM98.9277 36.0406V29.3314H101.813C102.107 29.3314 102.381 29.3953 102.635 29.5168C102.89 29.6384 103.099 29.7983 103.282 29.9965C103.465 30.1948 103.602 30.4187 103.7 30.6745C103.797 30.9239 103.85 31.1798 103.85 31.442C103.85 31.7042 103.81 31.9217 103.739 32.1455C103.667 32.3694 103.562 32.5677 103.425 32.7531C103.288 32.9386 103.132 33.0857 102.942 33.2072C102.753 33.3288 102.544 33.4119 102.316 33.4567L104.006 36.047H103.243L101.624 33.5718H99.6001V36.047H98.9343L98.9277 36.0406Z" fill="#F7F7F7"/>
<path d="M81.8642 30.1245C81.8642 30.1245 81.8055 30.1437 81.8055 30.1756C81.8055 30.2076 81.8251 30.2332 81.8577 30.2332C81.8903 30.2332 81.9164 30.214 81.9164 30.182C81.9164 30.1501 81.8969 30.1245 81.8642 30.1245ZM81.4203 30.1245C81.4203 30.1245 81.3681 30.1501 81.3681 30.182C81.3681 30.214 81.3942 30.2332 81.4269 30.2332C81.4595 30.2332 81.4791 30.2076 81.4791 30.1756C81.4791 30.1501 81.453 30.1245 81.4203 30.1245ZM80.9764 30.1948C80.9764 30.1948 80.9308 30.2332 80.9373 30.2588C80.9438 30.2844 80.9764 30.3036 81.0026 30.2972C81.0287 30.2908 81.0483 30.2588 81.0417 30.2332C81.0352 30.2012 81.0026 30.1884 80.9764 30.1948ZM80.5587 30.3419C80.5587 30.3419 80.5195 30.3867 80.5326 30.4123C80.5456 30.4379 80.5783 30.4507 80.6044 30.4379C80.6305 30.4251 80.6435 30.3931 80.6305 30.3675C80.6174 30.3419 80.5848 30.3291 80.5587 30.3419ZM80.167 30.5594C80.167 30.5594 80.1344 30.6106 80.154 30.6361C80.1735 30.6617 80.2062 30.6681 80.2323 30.6489C80.2584 30.6297 80.2649 30.5978 80.2453 30.5722C80.2258 30.5466 80.1931 30.5402 80.167 30.5594ZM79.8276 30.8344C79.8276 30.8344 79.808 30.8856 79.8276 30.9112C79.8471 30.9304 79.8863 30.9304 79.9059 30.9112C79.9255 30.892 79.9255 30.8536 79.9059 30.8344C79.8863 30.8152 79.8471 30.8152 79.8276 30.8344ZM79.5338 31.167C79.5338 31.167 79.5208 31.2246 79.5469 31.2437C79.573 31.2629 79.6056 31.2565 79.6252 31.231C79.6448 31.2054 79.6383 31.1734 79.6121 31.1542C79.586 31.135 79.5534 31.1414 79.5338 31.167ZM79.3119 31.5444C79.3119 31.5444 79.3119 31.6019 79.338 31.6147C79.3641 31.6275 79.3967 31.6147 79.4098 31.5891C79.4228 31.5635 79.4098 31.5316 79.3837 31.5188C79.3576 31.506 79.3249 31.5188 79.3119 31.5444ZM79.1552 31.9537C79.1552 31.9537 79.1617 32.0113 79.1944 32.0176C79.2205 32.024 79.2531 32.0113 79.2596 31.9793C79.2662 31.9537 79.2531 31.9217 79.2205 31.9153C79.1944 31.9089 79.1617 31.9217 79.1552 31.9537ZM79.0703 32.3886C79.0703 32.3886 79.0899 32.4462 79.116 32.4462C79.1487 32.4462 79.1748 32.427 79.1748 32.395C79.1748 32.363 79.1552 32.3374 79.1226 32.3374C79.0965 32.3374 79.0638 32.3566 79.0638 32.3886M79.0703 32.8235C79.0703 32.8235 79.0965 32.8747 79.1291 32.8747C79.1617 32.8747 79.1813 32.8491 79.1813 32.8171C79.1813 32.7851 79.1552 32.766 79.1226 32.766C79.0899 32.766 79.0703 32.7915 79.0703 32.8235ZM79.1421 33.2584C79.1421 33.2584 79.1813 33.3032 79.2074 33.2968C79.2335 33.2904 79.2531 33.2584 79.2466 33.2329C79.2401 33.2073 79.2074 33.1881 79.1813 33.1945C79.1552 33.2009 79.1356 33.2329 79.1421 33.2584ZM79.2923 33.6678C79.2923 33.6678 79.338 33.7062 79.3641 33.6934C79.3902 33.6806 79.4033 33.6486 79.3902 33.623C79.3772 33.5974 79.3445 33.5846 79.3184 33.5974C79.2923 33.6102 79.2792 33.6422 79.2923 33.6678ZM79.5142 34.0451C79.5142 34.0451 79.5665 34.0771 79.5926 34.0579C79.6187 34.0387 79.6252 34.0068 79.6056 33.9812C79.586 33.9556 79.5534 33.9492 79.5273 33.9684C79.5012 33.9876 79.4946 34.0195 79.5142 34.0451ZM79.8015 34.3841C79.8015 34.3841 79.8602 34.4033 79.8798 34.3841C79.8994 34.3649 79.8994 34.3265 79.8798 34.3074C79.8602 34.2882 79.821 34.2882 79.8015 34.3074C79.7819 34.3265 79.7819 34.3649 79.8015 34.3841ZM80.1409 34.6655C80.1409 34.6655 80.1996 34.6783 80.2192 34.6527C80.2388 34.6272 80.2323 34.5952 80.2062 34.576C80.1801 34.5568 80.1474 34.5632 80.1278 34.5888C80.1083 34.6144 80.1148 34.6463 80.1409 34.6655ZM80.526 34.8894C80.526 34.8894 80.5848 34.8894 80.5978 34.8638C80.6109 34.8382 80.5978 34.8062 80.5717 34.7934C80.5456 34.7807 80.513 34.7934 80.4999 34.819C80.4869 34.8446 80.4999 34.8766 80.526 34.8894ZM80.9438 35.0429C80.9438 35.0429 81.0026 35.0365 81.0091 35.0045C81.0156 34.9725 81.0026 34.9469 80.9699 34.9406C80.9438 34.9342 80.9112 34.9469 80.9046 34.9789C80.8981 35.0109 80.9112 35.0365 80.9438 35.0429ZM81.3812 35.1196C81.3812 35.1196 81.4399 35.1004 81.4399 35.0685C81.4399 35.0365 81.4203 35.0109 81.3942 35.0109C81.3616 35.0109 81.3355 35.0301 81.3355 35.0557C81.3355 35.0877 81.3551 35.1132 81.3812 35.1132M81.8251 35.126C81.8251 35.126 81.8773 35.1004 81.8773 35.0685C81.8773 35.0365 81.8512 35.0173 81.8185 35.0173C81.7859 35.0173 81.7663 35.0429 81.7663 35.0749C81.7663 35.1068 81.7924 35.126 81.8251 35.126ZM82.2689 35.0493C82.2689 35.0493 82.3146 35.0109 82.3081 34.9853C82.3016 34.9597 82.2689 34.9405 82.2428 34.9469C82.2167 34.9533 82.1971 34.9853 82.2037 35.0109C82.2102 35.0429 82.2428 35.0557 82.2689 35.0493ZM82.6867 34.9022C82.6867 34.9022 82.7259 34.8574 82.7128 34.8318C82.6998 34.8062 82.6671 34.7934 82.641 34.8062C82.6149 34.819 82.6019 34.851 82.6149 34.8766C82.628 34.9022 82.6606 34.915 82.6867 34.9022ZM83.0784 34.6911C83.0784 34.6911 83.111 34.6399 83.0914 34.6144C83.0719 34.5888 83.0392 34.5824 83.0131 34.6016C82.987 34.6208 82.9805 34.6527 83 34.6783C83.0196 34.7039 83.0523 34.7103 83.0784 34.6911ZM83.4178 34.4097C83.4178 34.4097 83.4374 34.3585 83.4178 34.3329C83.3982 34.3138 83.3656 34.3138 83.3395 34.3329C83.3199 34.3521 83.3199 34.3841 83.3395 34.4097C83.3591 34.4289 83.3917 34.4289 83.4178 34.4097ZM83.7116 34.0771C83.7116 34.0771 83.7246 34.0195 83.6985 34.0004C83.6724 33.9812 83.6398 33.9876 83.6202 34.0132C83.6006 34.0387 83.6071 34.0707 83.6332 34.0899C83.6593 34.1091 83.692 34.1027 83.7116 34.0771ZM83.9335 33.6998C83.9335 33.6998 83.9335 33.6422 83.9074 33.6294C83.8813 33.6166 83.8486 33.6294 83.8356 33.655C83.8225 33.6806 83.8356 33.7125 83.8617 33.7253C83.8878 33.7381 83.9205 33.7253 83.9335 33.6998ZM84.0902 33.2904C84.0902 33.2904 84.0836 33.2329 84.051 33.2265C84.0249 33.2201 83.9923 33.2329 83.9857 33.2648C83.9792 33.2904 83.9923 33.3224 84.0249 33.3288C84.051 33.3352 84.0837 33.3224 84.0902 33.2904ZM84.175 32.8619C84.175 32.8619 84.1555 32.8043 84.1293 32.8043C84.0967 32.8043 84.0706 32.8235 84.0706 32.8555C84.0706 32.8875 84.0902 32.9131 84.1163 32.9131C84.1489 32.9131 84.175 32.8939 84.175 32.8619ZM84.175 32.4206C84.175 32.4206 84.1489 32.3694 84.1163 32.3694C84.0837 32.3694 84.0641 32.395 84.0641 32.427C84.0641 32.459 84.0902 32.4781 84.1228 32.4781C84.1555 32.4781 84.175 32.4526 84.175 32.4206ZM84.1032 31.9921C84.1032 31.9921 84.0641 31.9473 84.038 31.9537C84.0118 31.9601 83.9923 31.9921 83.9988 32.0176C84.0053 32.0432 84.038 32.0624 84.0641 32.056C84.0902 32.0496 84.1098 32.0176 84.1032 31.9921ZM83.9531 31.5763C83.9531 31.5763 83.9074 31.538 83.8813 31.5508C83.8552 31.5635 83.8421 31.5955 83.8552 31.6211C83.8682 31.6467 83.9009 31.6595 83.927 31.6467C83.9531 31.6339 83.9662 31.6019 83.9531 31.5763ZM83.7312 31.199C83.7312 31.199 83.6789 31.167 83.6528 31.1862C83.6267 31.2054 83.6202 31.2374 83.6398 31.2629C83.6594 31.2885 83.692 31.2949 83.7181 31.2757C83.7442 31.2565 83.7507 31.2246 83.7312 31.199ZM83.4439 30.86C83.4439 30.86 83.3852 30.8408 83.3656 30.86C83.346 30.8792 83.346 30.9176 83.3656 30.9367C83.3852 30.9559 83.4244 30.9559 83.4439 30.9367C83.4635 30.9176 83.4635 30.8792 83.4439 30.86ZM83.1045 30.5786C83.1045 30.5786 83.0457 30.5658 83.0262 30.5914C83.0066 30.617 83.0131 30.6489 83.0392 30.6681C83.0653 30.6873 83.098 30.6809 83.1175 30.6553C83.1371 30.6297 83.1306 30.5978 83.1045 30.5786ZM82.7194 30.3547C82.7194 30.3547 82.6606 30.3547 82.6475 30.3803C82.6345 30.4059 82.6475 30.4379 82.6737 30.4507C82.6998 30.4635 82.7324 30.4507 82.7455 30.4251C82.7585 30.3995 82.7455 30.3675 82.7194 30.3547ZM82.3016 30.2012C82.3016 30.2012 82.2428 30.2076 82.2363 30.2396C82.2298 30.2716 82.2428 30.2972 82.2755 30.3036C82.3016 30.31 82.3342 30.2972 82.3407 30.2652C82.3473 30.2332 82.3342 30.2076 82.3016 30.2012ZM81.5901 29.6576C81.5313 29.6576 81.4791 29.7087 81.4791 29.7663C81.4791 29.8239 81.5313 29.875 81.5901 29.875C81.6488 29.875 81.701 29.8239 81.701 29.7663C81.701 29.7087 81.6488 29.6576 81.5901 29.6576ZM81.0678 29.7023C81.0091 29.7151 80.9699 29.7727 80.9764 29.8303C80.9895 29.8878 81.0483 29.9262 81.107 29.9198C81.1658 29.907 81.2049 29.8495 81.1984 29.7919C81.1853 29.7343 81.1266 29.696 81.0678 29.7023ZM80.5587 29.8431C80.4999 29.8622 80.4738 29.9262 80.4934 29.9838C80.513 30.0413 80.5783 30.0669 80.637 30.0477C80.6958 30.0285 80.7219 29.9646 80.7023 29.907C80.6827 29.8495 80.6174 29.8239 80.5587 29.8431ZM80.0821 30.0669C80.0299 30.0989 80.0103 30.1629 80.043 30.214C80.0756 30.2652 80.1409 30.2844 80.1931 30.2524C80.2453 30.2204 80.2649 30.1565 80.2323 30.1053C80.1996 30.0541 80.1344 30.0349 80.0821 30.0669ZM79.6513 30.3675C79.6056 30.4059 79.5991 30.4762 79.6383 30.521C79.6774 30.5658 79.7492 30.5722 79.7949 30.5338C79.8406 30.4954 79.8471 30.4251 79.808 30.3803C79.7688 30.3355 79.697 30.3291 79.6513 30.3675ZM79.2858 30.7385C79.2466 30.7832 79.2531 30.8536 79.2988 30.892C79.3445 30.9304 79.4163 30.924 79.4555 30.8792C79.4946 30.8344 79.4881 30.7641 79.4424 30.7257C79.3967 30.6873 79.3249 30.6937 79.2858 30.7385ZM78.9855 31.167C78.9528 31.2182 78.9724 31.2885 79.0246 31.3141C79.0769 31.3461 79.1487 31.3269 79.1748 31.2693C79.2074 31.2182 79.1878 31.1478 79.1356 31.1222C79.0834 31.0902 79.0116 31.1094 78.9855 31.1606M78.7635 31.6339C78.744 31.6915 78.7701 31.7554 78.8288 31.7746C78.8876 31.7938 78.9528 31.7618 78.9724 31.7106C78.992 31.6531 78.9659 31.5891 78.9071 31.5699C78.8484 31.5507 78.7831 31.5827 78.7635 31.6339ZM78.633 32.1392C78.6265 32.1967 78.6656 32.2543 78.7244 32.2671C78.7831 32.2799 78.8419 32.2351 78.8549 32.1775C78.8615 32.12 78.8223 32.0624 78.7635 32.0496C78.7048 32.0368 78.646 32.0816 78.633 32.1392ZM78.5938 32.6508C78.5938 32.7084 78.646 32.7596 78.7048 32.7596C78.7635 32.7596 78.8158 32.7084 78.8158 32.6508C78.8158 32.5933 78.7635 32.5421 78.7048 32.5421C78.6395 32.5421 78.5938 32.5933 78.5938 32.6508ZM78.646 33.1689C78.6591 33.2265 78.7178 33.2648 78.7766 33.2584C78.8353 33.2456 78.8745 33.1881 78.868 33.1305C78.8549 33.073 78.7962 33.0346 78.7374 33.041C78.6787 33.0538 78.6395 33.1113 78.646 33.1689ZM78.7831 33.6678C78.8027 33.7253 78.868 33.7509 78.9267 33.7317C78.9855 33.7125 79.0116 33.6486 78.992 33.591C78.9724 33.5335 78.9072 33.5079 78.8484 33.5271C78.7897 33.5463 78.7635 33.6102 78.7831 33.6678ZM79.0116 34.1347C79.0442 34.1858 79.1095 34.205 79.1617 34.173C79.214 34.1411 79.2335 34.0771 79.2009 34.0259C79.1683 33.9748 79.103 33.9556 79.0508 33.9876C78.9985 34.0195 78.979 34.0835 79.0116 34.1347ZM79.3184 34.5504C79.3576 34.5952 79.4294 34.6016 79.4751 34.5632C79.5208 34.5248 79.5273 34.4545 79.4881 34.4097C79.449 34.3649 79.3771 34.3585 79.3315 34.3969C79.2858 34.4353 79.2792 34.5056 79.3184 34.5504ZM79.697 34.915C79.7427 34.9533 79.8145 34.9469 79.8537 34.9022C79.8928 34.8574 79.8863 34.7871 79.8406 34.7487C79.7949 34.7103 79.7231 34.7167 79.684 34.7615C79.6448 34.8062 79.6513 34.8766 79.697 34.915ZM80.1344 35.2092C80.1866 35.2412 80.2584 35.222 80.2845 35.1708C80.3171 35.1196 80.2976 35.0493 80.2453 35.0237C80.1931 34.9917 80.1213 35.0109 80.0952 35.0685C80.0626 35.1196 80.0821 35.19 80.1409 35.2156M80.6174 35.4202C80.6762 35.4394 80.7414 35.4074 80.761 35.3563C80.7806 35.2987 80.7545 35.2348 80.6958 35.2156C80.637 35.1964 80.5717 35.2284 80.5521 35.2859C80.5326 35.3435 80.5587 35.4074 80.6174 35.4266M81.1266 35.5482C81.1853 35.5546 81.2441 35.5162 81.2571 35.4586C81.2702 35.4011 81.2245 35.3435 81.1657 35.3307C81.107 35.3243 81.0483 35.3627 81.0352 35.4202C81.0221 35.4778 81.0678 35.5354 81.1266 35.5482ZM81.6553 35.5929C81.7141 35.5929 81.7663 35.5418 81.7663 35.4842C81.7663 35.4266 81.7141 35.3755 81.6553 35.3755C81.5966 35.3755 81.5444 35.4266 81.5444 35.4842C81.5444 35.5418 81.5966 35.5929 81.6553 35.5929ZM82.1776 35.5418C82.2363 35.529 82.2755 35.4714 82.2689 35.4138C82.2559 35.3563 82.1971 35.3179 82.1384 35.3243C82.0796 35.3371 82.0405 35.3947 82.047 35.4522C82.0601 35.5098 82.1188 35.5482 82.1776 35.5418ZM82.6867 35.4011C82.7455 35.3819 82.7716 35.3179 82.752 35.2603C82.7324 35.2028 82.6671 35.1772 82.6084 35.1964C82.5496 35.2156 82.5235 35.2795 82.5431 35.3371C82.5627 35.3947 82.628 35.4202 82.6867 35.4011ZM83.1632 35.1772C83.2155 35.1452 83.235 35.0813 83.2024 35.0301C83.1698 34.9789 83.1045 34.9597 83.0523 34.9917C83 35.0237 82.9805 35.0877 83.0131 35.1388C83.0457 35.19 83.111 35.2092 83.1632 35.1772ZM83.5941 34.8766C83.6398 34.8382 83.6463 34.7679 83.6071 34.7231C83.568 34.6783 83.4962 34.6719 83.4505 34.7103C83.4048 34.7487 83.3982 34.819 83.4374 34.8638C83.4766 34.9086 83.5484 34.915 83.5941 34.8766ZM83.9596 34.5056C83.9988 34.4609 83.9923 34.3905 83.9466 34.3521C83.9009 34.3138 83.8291 34.3202 83.7899 34.3649C83.7507 34.4097 83.7573 34.48 83.803 34.5184C83.8487 34.5568 83.9205 34.5504 83.9596 34.5056ZM84.2599 34.0835C84.2925 34.0323 84.273 33.962 84.2207 33.9364C84.1685 33.9044 84.0967 33.9236 84.0706 33.9748C84.038 34.0259 84.0575 34.0963 84.1163 34.1219C84.1685 34.1539 84.2403 34.1347 84.2664 34.0835M84.4818 33.6102C84.5014 33.5526 84.4753 33.4887 84.4166 33.4695C84.3578 33.4503 84.2925 33.4823 84.273 33.5335C84.2534 33.591 84.286 33.655 84.3382 33.6742C84.397 33.6934 84.4623 33.6614 84.4818 33.6102ZM84.6124 33.1113C84.6255 33.0538 84.5798 32.9962 84.521 32.9834C84.4623 32.9706 84.4035 33.0154 84.3905 33.073C84.3774 33.1305 84.4231 33.1881 84.4818 33.2009C84.5406 33.2137 84.5993 33.1689 84.6124 33.1113ZM84.6516 32.5933C84.6516 32.5357 84.5993 32.4845 84.5406 32.4845C84.4818 32.4845 84.4296 32.5357 84.4296 32.5933C84.4296 32.6508 84.4818 32.702 84.5406 32.702C84.5993 32.702 84.6516 32.6508 84.6516 32.5933ZM84.5993 32.0752C84.5863 32.0176 84.5275 31.9793 84.4688 31.9857C84.41 31.9985 84.3709 32.056 84.3774 32.1136C84.3905 32.1711 84.4492 32.2095 84.508 32.2031C84.5667 32.1903 84.6059 32.1328 84.5993 32.0752ZM84.4557 31.5827C84.4362 31.5252 84.3709 31.4996 84.3121 31.5188C84.2534 31.538 84.2273 31.6019 84.2468 31.6595C84.2664 31.717 84.3317 31.7426 84.3905 31.7234C84.4492 31.7042 84.4753 31.6403 84.4557 31.5827ZM84.2338 31.1158C84.2011 31.0647 84.1359 31.0455 84.0836 31.0775C84.0314 31.1094 84.0118 31.1734 84.0445 31.2246C84.0771 31.2757 84.1424 31.2949 84.1946 31.2629C84.2468 31.231 84.2664 31.167 84.2338 31.1158ZM83.927 30.6937C83.8878 30.6489 83.816 30.6425 83.7703 30.6809C83.7246 30.7193 83.7181 30.7896 83.7573 30.8344C83.7964 30.8792 83.8682 30.8856 83.9139 30.8472C83.9596 30.8088 83.9662 30.7385 83.927 30.6937ZM83.5484 30.3291C83.5027 30.2908 83.4309 30.2972 83.3917 30.3419C83.3525 30.3867 83.3591 30.4571 83.4048 30.4954C83.4505 30.5338 83.5223 30.5274 83.5614 30.4826C83.6006 30.4379 83.5941 30.3675 83.5484 30.3291ZM83.111 30.0349C83.0588 30.003 82.987 30.0221 82.9609 30.0733C82.9282 30.1245 82.9478 30.1948 83.0066 30.2204C83.0588 30.2524 83.1306 30.2332 83.1567 30.1756C83.1894 30.1245 83.1698 30.0541 83.1175 30.0285M82.628 29.8239C82.5692 29.8047 82.5039 29.8367 82.4844 29.8878C82.4648 29.9454 82.4909 30.0093 82.5496 30.0285C82.6084 30.0477 82.6737 30.0157 82.6932 29.9646C82.7128 29.907 82.6867 29.8431 82.628 29.8239ZM82.1188 29.696C82.0601 29.6896 82.0013 29.7279 81.9882 29.7855C81.9752 29.8431 82.0209 29.9006 82.0796 29.9134C82.1384 29.9262 82.1971 29.8814 82.2102 29.8239C82.2167 29.7663 82.1776 29.7087 82.1188 29.696ZM81.2637 29.0692C81.1657 29.0756 81.0939 29.1651 81.107 29.2546C81.1201 29.3442 81.2049 29.4209 81.2963 29.4081C81.3942 29.3953 81.466 29.3122 81.453 29.2227C81.4464 29.1267 81.3551 29.0564 81.2637 29.0692ZM80.637 29.1843C80.5456 29.2099 80.4869 29.3058 80.513 29.3953C80.5391 29.4849 80.637 29.5425 80.7284 29.5169C80.8198 29.4913 80.8785 29.3953 80.8524 29.3058C80.8263 29.2163 80.7284 29.1587 80.637 29.1843ZM80.043 29.4017C79.9516 29.4465 79.919 29.5488 79.9581 29.632C79.9973 29.7151 80.1083 29.7535 80.1931 29.7151C80.278 29.6768 80.3171 29.568 80.278 29.4849C80.2388 29.4017 80.1278 29.3634 80.043 29.4017ZM79.4946 29.7215C79.4163 29.7791 79.3967 29.8878 79.4555 29.9646C79.5142 30.0413 79.6252 30.0605 79.7035 30.003C79.7819 29.9454 79.8015 29.8367 79.7427 29.7599C79.684 29.6832 79.573 29.664 79.4946 29.7215ZM79.0116 30.1245C78.9463 30.1948 78.9463 30.3036 79.0116 30.3675C79.0834 30.4315 79.1944 30.4315 79.2596 30.3675C79.3249 30.2972 79.3249 30.1884 79.2596 30.1245C79.1878 30.0605 79.0769 30.0605 79.0116 30.1245ZM78.6134 30.6106C78.5612 30.6873 78.5808 30.796 78.6591 30.8472C78.7374 30.8984 78.8484 30.8792 78.9006 30.8024C78.9528 30.7257 78.9333 30.617 78.8549 30.5594C78.7766 30.5082 78.6656 30.5274 78.6069 30.6042M78.3001 31.1478C78.2609 31.2374 78.3001 31.3333 78.3849 31.3781C78.4763 31.4164 78.5742 31.3781 78.6199 31.2949C78.6591 31.2054 78.6199 31.1094 78.5351 31.0647C78.4437 31.0263 78.3392 31.0647 78.3001 31.1542M78.0912 31.7362C78.0651 31.8258 78.1238 31.9217 78.2152 31.9473C78.3066 31.9729 78.4045 31.9153 78.4306 31.8258C78.4567 31.7362 78.398 31.6403 78.3066 31.6147C78.2087 31.5891 78.1173 31.6467 78.0912 31.7426M77.9867 32.3502C77.9802 32.4462 78.052 32.5293 78.1499 32.5357C78.2479 32.5421 78.3327 32.4718 78.3392 32.3758C78.3458 32.2799 78.274 32.1967 78.176 32.1903C78.0781 32.1839 77.9933 32.2543 77.9867 32.3502ZM77.9933 32.977C77.9998 33.073 78.0912 33.1433 78.1826 33.1305C78.2805 33.1177 78.3523 33.0346 78.3392 32.945C78.3327 32.8491 78.2413 32.7788 78.1499 32.7915C78.052 32.8043 77.9802 32.8875 77.9933 32.977ZM78.1108 33.5846C78.1369 33.6742 78.2348 33.7317 78.3262 33.7062C78.4176 33.6806 78.4763 33.5846 78.4502 33.4951C78.4241 33.4055 78.3262 33.348 78.2348 33.3736C78.1434 33.3991 78.0847 33.4951 78.1108 33.5846ZM78.3327 34.173C78.3784 34.2562 78.4828 34.2946 78.5677 34.2562C78.6526 34.2178 78.6917 34.1155 78.6526 34.0259C78.6069 33.9428 78.5024 33.9044 78.4176 33.9428C78.3327 33.9812 78.2935 34.0835 78.3327 34.173ZM78.6591 34.7039C78.7178 34.7807 78.8223 34.7998 78.9071 34.7423C78.9855 34.6847 79.0051 34.576 78.9463 34.4992C78.8876 34.4225 78.7766 34.4033 78.6983 34.4609C78.6199 34.5184 78.6003 34.6272 78.6591 34.7039ZM79.0769 35.1772C79.1487 35.2412 79.2596 35.2412 79.3249 35.1772C79.3902 35.1068 79.3902 34.9981 79.3249 34.9342C79.2596 34.8702 79.1422 34.8702 79.0769 34.9342C79.0116 35.0045 79.0116 35.1132 79.0769 35.1772ZM79.5665 35.5737C79.6448 35.6249 79.7558 35.6057 79.808 35.529C79.8602 35.4522 79.8406 35.3435 79.7623 35.2923C79.684 35.2412 79.573 35.2603 79.5142 35.3371C79.4555 35.4138 79.4816 35.5226 79.5599 35.5801M80.1213 35.8807C80.2062 35.9191 80.3106 35.8807 80.3563 35.7912C80.3955 35.7081 80.3563 35.6057 80.2715 35.5609C80.1801 35.5226 80.0756 35.5609 80.0365 35.6441C79.9973 35.7336 80.0365 35.8296 80.1278 35.8743M80.7219 36.0854C80.8198 36.111 80.9112 36.0534 80.9373 35.9639C80.9634 35.8743 80.9046 35.7784 80.8133 35.7528C80.7219 35.7272 80.6239 35.7848 80.5978 35.8743C80.5717 35.9703 80.6305 36.0598 80.7219 36.0854ZM81.3485 36.1877C81.4464 36.1941 81.5313 36.1238 81.5378 36.0278C81.5444 35.9319 81.4726 35.8488 81.3746 35.8424C81.2767 35.836 81.1919 35.9063 81.1853 36.0023C81.1788 36.0982 81.2506 36.1813 81.3485 36.1877ZM81.9817 36.1813C82.0796 36.1749 82.1514 36.0854 82.1384 35.9959C82.1319 35.8999 82.0405 35.8296 81.9491 35.8424C81.8512 35.8552 81.7794 35.9383 81.7924 36.0278C81.7989 36.1238 81.8903 36.1941 81.9817 36.1813ZM82.6084 36.0598C82.6998 36.0342 82.7585 35.9383 82.7324 35.8488C82.7063 35.7592 82.6084 35.7017 82.517 35.7272C82.4256 35.7528 82.3669 35.8488 82.393 35.9383C82.4191 36.0278 82.517 36.0854 82.6084 36.0598ZM83.2024 35.8424C83.2873 35.7976 83.3264 35.6953 83.2873 35.6121C83.2481 35.529 83.1371 35.4906 83.0523 35.529C82.9674 35.5673 82.9282 35.6697 82.9674 35.7592C83.0131 35.8424 83.1175 35.8807 83.2024 35.8424ZM83.7507 35.5226C83.8291 35.465 83.8487 35.3563 83.7899 35.2795C83.7312 35.2028 83.6202 35.1836 83.5419 35.2412C83.4635 35.2987 83.4439 35.4074 83.5027 35.4842C83.5614 35.5609 83.6724 35.5801 83.7507 35.5226ZM84.2338 35.1196C84.2991 35.0493 84.2991 34.9405 84.2338 34.8766C84.162 34.8126 84.051 34.8126 83.9857 34.8766C83.9205 34.9469 83.9205 35.0557 83.9857 35.1196C84.0575 35.1836 84.1685 35.1836 84.2338 35.1196ZM84.632 34.6399C84.6842 34.5632 84.6646 34.4545 84.5863 34.4033C84.508 34.3521 84.397 34.3713 84.3382 34.4481C84.286 34.5248 84.3056 34.6336 84.3839 34.6911C84.4623 34.7423 84.5732 34.7231 84.632 34.6463M84.9453 34.0963C84.9845 34.0068 84.9453 33.9108 84.8605 33.866C84.7691 33.8277 84.6646 33.866 84.6255 33.9492C84.5863 34.0387 84.6255 34.1411 84.7168 34.1794C84.8082 34.2178 84.9061 34.1794 84.9518 34.0899M85.1542 33.5079C85.1803 33.4183 85.1216 33.3224 85.0302 33.2968C84.9323 33.2712 84.8409 33.3288 84.8148 33.4183C84.7886 33.5079 84.8474 33.6038 84.9388 33.6294C85.0302 33.655 85.1281 33.5974 85.1542 33.5015M85.2586 32.8939C85.2652 32.7979 85.1934 32.7148 85.0955 32.7084C84.9975 32.702 84.9127 32.7724 84.9062 32.8683C84.8996 32.9642 84.9714 33.0474 85.0693 33.0538C85.1673 33.0602 85.2521 32.9898 85.2586 32.8939ZM85.2521 32.2671C85.2456 32.1711 85.1542 32.1008 85.0628 32.1136C84.9649 32.1264 84.8931 32.2095 84.9062 32.2991C84.9192 32.395 85.0041 32.4654 85.102 32.4526C85.1999 32.4398 85.2717 32.3566 85.2586 32.2671M85.1346 31.6595C85.1085 31.5699 85.0106 31.5124 84.9192 31.538C84.8278 31.5635 84.7691 31.6595 84.7952 31.749C84.8213 31.8386 84.9192 31.8961 85.0106 31.8705C85.102 31.845 85.1607 31.749 85.1346 31.6595ZM84.9127 31.0775C84.8735 30.9943 84.7625 30.9559 84.6777 30.9943C84.5928 31.0327 84.5536 31.135 84.5928 31.2246C84.632 31.3077 84.743 31.3461 84.8278 31.3077C84.9192 31.2693 84.9518 31.167 84.9127 31.0775ZM84.5863 30.5402C84.5275 30.4635 84.4166 30.4443 84.3382 30.5018C84.2599 30.5594 84.2403 30.6681 84.2991 30.7449C84.3578 30.8216 84.4688 30.8408 84.5471 30.7832C84.6255 30.7257 84.645 30.617 84.5863 30.5402ZM84.1685 30.0669C84.0967 30.003 83.9857 30.003 83.9205 30.0669C83.8552 30.1373 83.8552 30.246 83.9205 30.31C83.9923 30.3739 84.1032 30.3739 84.1685 30.31C84.2338 30.2396 84.2338 30.1309 84.1685 30.0669ZM83.6789 29.6704C83.6006 29.6192 83.4896 29.6384 83.4374 29.7151C83.3852 29.7919 83.4048 29.9006 83.4831 29.9518C83.5614 30.003 83.6724 29.9838 83.7312 29.907C83.7899 29.8303 83.7638 29.7215 83.6855 29.664M83.1241 29.3698C83.0392 29.3314 82.9348 29.3698 82.8891 29.4593C82.8499 29.5425 82.8891 29.6448 82.9739 29.6896C83.0653 29.7279 83.1632 29.6896 83.2089 29.6064C83.2481 29.5169 83.2089 29.4209 83.1241 29.3762M82.5235 29.1587C82.4321 29.1331 82.3342 29.1907 82.3081 29.2802C82.282 29.3698 82.3407 29.4657 82.4321 29.4913C82.5235 29.5169 82.6214 29.4593 82.6475 29.3698C82.6737 29.2802 82.6149 29.1843 82.517 29.1587M81.8969 29.0628C81.7989 29.0564 81.7141 29.1267 81.7076 29.2227C81.701 29.3186 81.7728 29.4017 81.8707 29.4081C81.9687 29.4145 82.0535 29.3442 82.0601 29.2482C82.0666 29.1523 81.9948 29.0692 81.8969 29.0628ZM81.1592 28.5255C81.1853 28.6662 81.0874 28.8069 80.9438 28.8325C80.8002 28.8581 80.6566 28.7622 80.6305 28.6214C80.6044 28.4807 80.7023 28.34 80.8459 28.3144C80.9895 28.2889 81.1331 28.3848 81.1592 28.5255ZM80.4412 28.6662C80.4934 28.8005 80.4216 28.954 80.278 29.0052C80.1409 29.0564 79.9842 28.986 79.932 28.8453C79.8798 28.711 79.9516 28.5575 80.0952 28.5063C80.2323 28.4552 80.389 28.5255 80.4412 28.6662ZM79.7558 28.9284C79.8276 29.0564 79.7884 29.2163 79.6578 29.2866C79.5273 29.357 79.3641 29.3186 79.2923 29.1907C79.2205 29.0628 79.2597 28.9029 79.3902 28.8325C79.5208 28.7622 79.684 28.8005 79.7558 28.9284ZM79.1291 29.3058C79.227 29.4145 79.2074 29.5808 79.0965 29.6768C78.9855 29.7727 78.8158 29.7535 78.7178 29.6448C78.6199 29.5361 78.6395 29.3698 78.7505 29.2738C78.8615 29.1779 79.0312 29.1971 79.1291 29.3058ZM78.5808 29.7791C78.6983 29.875 78.7113 30.0413 78.6134 30.1501C78.5155 30.2588 78.3458 30.278 78.2348 30.182C78.1238 30.0861 78.1042 29.9198 78.2022 29.8111C78.3001 29.7023 78.4698 29.6832 78.5808 29.7791ZM78.1238 30.3419C78.2544 30.4123 78.2935 30.5786 78.2217 30.7001C78.1499 30.828 77.9802 30.8728 77.8562 30.796C77.7256 30.7257 77.6865 30.5594 77.7583 30.4379C77.8301 30.31 77.9998 30.2716 78.1238 30.3419ZM77.7713 30.9687C77.9084 31.0199 77.9802 31.167 77.9345 31.3077C77.8823 31.442 77.7322 31.5124 77.5885 31.4676C77.4515 31.4164 77.3797 31.2693 77.4254 31.1286C77.4776 30.9943 77.6277 30.924 77.7713 30.9687ZM77.5363 31.6467C77.6799 31.6723 77.7779 31.8066 77.7517 31.9537C77.7256 32.0944 77.5885 32.1903 77.4384 32.1648C77.2948 32.1392 77.1969 32.0049 77.223 31.8578C77.2491 31.717 77.3862 31.6211 77.5363 31.6467ZM77.4254 32.3566C77.5755 32.3566 77.693 32.4718 77.693 32.6189C77.693 32.766 77.569 32.8811 77.4254 32.8811C77.2817 32.8811 77.1577 32.766 77.1577 32.6189C77.1577 32.4718 77.2752 32.3566 77.4254 32.3566ZM77.4449 33.0794C77.5885 33.0538 77.7322 33.1497 77.7583 33.2904C77.7844 33.4311 77.6865 33.5718 77.5429 33.5974C77.3992 33.623 77.2556 33.5271 77.2295 33.3864C77.2034 33.2456 77.3013 33.1049 77.4449 33.0794ZM77.5885 33.7829C77.7256 33.7317 77.8823 33.8021 77.9345 33.9428C77.9867 34.0771 77.9149 34.2306 77.7713 34.2818C77.6342 34.3329 77.4776 34.2626 77.4254 34.1219C77.3731 33.9876 77.4449 33.8341 77.5885 33.7829ZM77.8562 34.4481C77.9867 34.3777 78.1499 34.4161 78.2217 34.544C78.2935 34.6719 78.2544 34.8318 78.1238 34.9022C77.9933 34.9725 77.8301 34.9342 77.7583 34.8062C77.6865 34.6783 77.7256 34.5184 77.8562 34.4481ZM78.2348 35.0621C78.3458 34.9661 78.5155 34.9853 78.6134 35.094C78.7113 35.2028 78.6917 35.3691 78.5808 35.465C78.4698 35.5609 78.3001 35.5418 78.2022 35.433C78.1042 35.3243 78.1238 35.158 78.2348 35.0621ZM78.7178 35.6057C78.8158 35.497 78.9855 35.4778 79.0965 35.5737C79.2074 35.6697 79.227 35.836 79.1291 35.9447C79.0312 36.0534 78.8615 36.0726 78.7505 35.9767C78.633 35.8807 78.6199 35.7144 78.7178 35.6057ZM79.2923 36.0534C79.3641 35.9255 79.5273 35.8871 79.6578 35.9575C79.7884 36.0278 79.8276 36.1941 79.7558 36.3157C79.684 36.4436 79.5142 36.482 79.3902 36.4116C79.2597 36.3412 79.2205 36.1813 79.2923 36.0534ZM79.932 36.3988C79.9842 36.2645 80.1344 36.1941 80.278 36.2389C80.4151 36.2901 80.4869 36.4372 80.4412 36.5779C80.389 36.7122 80.2388 36.7826 80.0952 36.7378C79.9581 36.6866 79.8863 36.5395 79.932 36.3988ZM80.6305 36.6291C80.6566 36.4883 80.7937 36.3924 80.9438 36.418C81.0874 36.4436 81.1853 36.5779 81.1592 36.725C81.1331 36.8657 80.996 36.9616 80.8459 36.9361C80.7023 36.9105 80.6044 36.7762 80.6305 36.6291ZM81.3551 36.7314C81.3551 36.5843 81.4726 36.4692 81.6227 36.4692C81.7728 36.4692 81.8903 36.5843 81.8903 36.7314C81.8903 36.8785 81.7728 36.9936 81.6227 36.9936C81.4726 36.9936 81.3551 36.8721 81.3551 36.7314ZM82.0862 36.7186C82.0601 36.5779 82.158 36.4372 82.3016 36.4116C82.4452 36.386 82.5888 36.4819 82.6149 36.6227C82.641 36.7634 82.5431 36.9041 82.3995 36.9297C82.2559 36.9552 82.1123 36.8593 82.0862 36.7186ZM82.8042 36.5779C82.752 36.4436 82.8238 36.2901 82.9674 36.2389C83.1045 36.1877 83.2612 36.2581 83.3134 36.3988C83.3656 36.5331 83.2938 36.6866 83.1502 36.7378C83.0131 36.7889 82.8564 36.7186 82.8042 36.5779ZM83.4896 36.3157C83.4178 36.1877 83.457 36.0278 83.5875 35.9575C83.7181 35.8871 83.8813 35.9255 83.9531 36.0534C84.0249 36.1813 83.9857 36.3412 83.8552 36.4116C83.7246 36.482 83.5614 36.4436 83.4896 36.3157ZM84.1163 35.9447C84.0184 35.836 84.038 35.6697 84.1489 35.5737C84.2599 35.4778 84.4296 35.497 84.5275 35.6057C84.6255 35.7144 84.6059 35.8807 84.4949 35.9767C84.3839 36.0726 84.2142 36.0534 84.1163 35.9447ZM84.6646 35.465C84.5536 35.3691 84.5341 35.2028 84.632 35.094C84.7299 34.9853 84.8996 34.9661 85.0106 35.0621C85.1281 35.158 85.1411 35.3243 85.0432 35.433C84.9453 35.5418 84.7756 35.5609 84.6646 35.465ZM85.1216 34.9086C84.991 34.8382 84.9518 34.6719 85.0236 34.5504C85.0955 34.4225 85.2652 34.3841 85.3892 34.4545C85.5198 34.5248 85.5655 34.6911 85.4871 34.8126C85.4153 34.9406 85.2521 34.9789 85.1216 34.9086ZM85.4741 34.2754C85.337 34.2242 85.2652 34.0771 85.3109 33.9364C85.3631 33.8021 85.5132 33.7317 85.6568 33.7765C85.7939 33.8277 85.8657 33.9748 85.82 34.1155C85.7678 34.2498 85.6177 34.3202 85.4741 34.2754ZM85.7091 33.5974C85.5655 33.5718 85.4675 33.4375 85.4936 33.2904C85.5198 33.1497 85.6568 33.0538 85.807 33.0794C85.9506 33.1049 86.0485 33.2393 86.0224 33.3864C85.9963 33.5271 85.8592 33.623 85.7091 33.5974ZM85.82 32.8875C85.6699 32.8875 85.5524 32.7724 85.5524 32.6253C85.5524 32.4781 85.6699 32.363 85.82 32.363C85.9702 32.363 86.0877 32.4781 86.0877 32.6253C86.0877 32.7724 85.9702 32.8875 85.82 32.8875ZM85.8004 32.1711C85.6568 32.1967 85.5132 32.1008 85.4871 31.9601C85.461 31.8194 85.5589 31.6787 85.7025 31.6531C85.8461 31.6275 85.9898 31.7234 86.0159 31.8641C86.042 32.0049 85.9441 32.1456 85.8004 32.1711ZM85.6568 31.4612C85.5198 31.5124 85.3631 31.442 85.3109 31.3013C85.2586 31.167 85.3305 31.0135 85.4741 30.9623C85.6111 30.9112 85.7678 30.9815 85.82 31.1222C85.8723 31.2565 85.8004 31.41 85.6568 31.4612ZM85.3892 30.796C85.2586 30.8664 85.0955 30.828 85.0236 30.7001C84.9518 30.5722 84.991 30.4123 85.1216 30.3419C85.2521 30.2716 85.4153 30.31 85.4871 30.4379C85.5589 30.5658 85.5198 30.7257 85.3892 30.796ZM85.0106 30.182C84.8996 30.278 84.7299 30.2588 84.632 30.1501C84.5341 30.0413 84.5536 29.875 84.6646 29.7791C84.7756 29.6832 84.9453 29.7023 85.0432 29.8111C85.1411 29.9198 85.1216 30.0861 85.0106 30.182ZM84.5275 29.6448C84.4296 29.7535 84.2599 29.7727 84.1489 29.6768C84.038 29.5808 84.0184 29.4209 84.1163 29.3058C84.2142 29.1971 84.3839 29.1779 84.4949 29.2738C84.6059 29.3698 84.6255 29.5297 84.5275 29.6448ZM83.9531 29.1907C83.8813 29.3186 83.7181 29.357 83.5875 29.2866C83.457 29.2163 83.4178 29.05 83.4896 28.9284C83.5614 28.8005 83.7312 28.7622 83.8552 28.8325C83.9857 28.9029 84.0249 29.0628 83.9531 29.1907ZM83.3134 28.8517C83.2612 28.986 83.111 29.0564 82.9674 29.0116C82.8303 28.9604 82.7585 28.8133 82.8042 28.6726C82.8564 28.5383 83.0066 28.4679 83.1502 28.5127C83.2873 28.5639 83.3591 28.711 83.3134 28.8517ZM82.6149 28.6214C82.5888 28.7622 82.4517 28.8581 82.3016 28.8325C82.158 28.8069 82.0601 28.6726 82.0862 28.5255C82.1123 28.3848 82.2494 28.2889 82.3995 28.3144C82.5431 28.34 82.641 28.4743 82.6149 28.6214ZM81.8903 28.5127C81.8903 28.6598 81.7728 28.775 81.6227 28.775C81.4726 28.775 81.3551 28.6598 81.3551 28.5127C81.3551 28.3656 81.4726 28.2505 81.6227 28.2505C81.7728 28.2505 81.8903 28.3656 81.8903 28.5127Z" fill="#F7F7F7"/>
</g>
<defs>
<clipPath id="clip0_20_508">
<rect width="104" height="37" fill="white"/>
</clipPath>
</defs>
</svg>
