<svg width="37" height="37" viewBox="0 0 37 37" fill="none" xmlns="http://www.w3.org/2000/svg">
<path d="M17.7122 5.41666C18.2152 5.20108 18.7843 5.20114 19.2874 5.41666L28.9934 9.57584C29.8126 9.92694 30.3012 10.7783 30.1907 11.6628L29.0354 20.9001C28.8152 22.661 27.9348 24.2727 26.5715 25.4088L19.7805 31.068C19.0389 31.686 17.9617 31.6859 17.22 31.068L10.429 25.4088C9.06553 24.2727 8.18435 22.6611 7.96411 20.9001L6.80884 11.6628C6.69829 10.7783 7.18687 9.92694 8.0061 9.57584L17.7122 5.41666Z" stroke="white" stroke-width="2" stroke-linecap="round"/>
<path d="M13.8751 18.5L18.0688 22.6937C18.2919 22.9168 18.6634 22.8801 18.8384 22.6175L24.6667 13.875" stroke="white" stroke-width="2" stroke-linecap="round"/>
</svg>
